<?xml version="1.0" encoding="UTF-8"?>
<svg id="b" data-name="Layer 2" xmlns="http://www.w3.org/2000/svg" viewBox="0 0 281.77 305.58">
  <g id="c" data-name="Layer 1">
    <path d="M35.41,124.33l-6.39-3.8s0,0,0,0c-5.14-3.97-8.76-9.34-10.49-15.58-4.49-16.18,6-33.01,22.27-37.13l43.57-11.04c.06-.02.11.04.1.1-1.34,5.29-1.37,10.89-.01,16.25l.04.14c.39,2.24,2.84,12.29,15.88,20.42l147.85,88.08c1.17.77,2.3,1.54,3.39,2.32l.48.35c.1.07.2.14.31.23l.43.32c1.09.83,2.11,1.74,3.06,2.72l.13.13c3.58,3.71,6.14,8.32,7.42,13.34,4.04,15.94-5.64,32.19-21.58,36.23l-43.74,11.08c-.06.01-.11-.04-.1-.1,1.29-5.21,1.29-10.68-.07-16.05-.06-.23-.12-.46-.15-.57-2.03-7.46-6.64-14.01-13-18.44,0,0,0,0,0,0L35.41,124.33ZM246.13,254.31c25.25-6.4,40.59-32.16,34.19-57.4-.15-.57-.3-1.15-.48-1.72l-.02-.07c-.14-.5-.29-1-.46-1.48l-.14-.53-.1-.17c-1.64-4.71-4-9.09-7.09-13.14l-.5-.62c-.13-.16-.26-.32-.39-.48l-.23-.29c-.19-.23-.38-.46-.58-.7-1.95-2.26-4.14-4.36-6.53-6.24l-.28-.22c-1.85-1.51-3.45-2.62-4.48-3.3L106.6,77.11s0,0-.01,0c-2.61-2.14-4.42-4.98-5.25-8.26-2.13-8.39,2.97-16.94,11.35-19.07.31-.08,61.15-15.6,87.27-22.26.07-.02.12.06.08.12l-25.79,41.55c-5.05,8.14-2.55,18.83,5.59,23.88.04.02.09.01.11-.03L237.62.12c.04-.06-.02-.14-.09-.12L35.65,51.14C10.4,57.54-4.95,83.29,1.45,108.55c.61,2.42,1.41,4.78,2.38,7.03,3.28,7.66,8.57,14.33,15.29,19.3,2.46,1.83,5.11,3.42,7.88,4.73,0,0,0,0,0,0l129.9,77.39,18.16,10.81s0,0,0,0c5.1,3.71,7.7,10.34,5.83,17-1.54,5.51-6.19,9.6-11.73,11.01l-87.86,22.26c-.07.02-.13-.06-.09-.12l25.08-40.42c5.05-8.14,2.55-18.83-5.59-23.89-.04-.02-.09-.01-.11.03l-56.95,91.77c-.04.06.02.14.09.12l202.37-51.27Z" style="fill: #181c29; stroke-width: 0px;"/>
  </g>
</svg>