<?xml version="1.0" encoding="UTF-8"?>
<svg id="b" data-name="Layer 2" xmlns="http://www.w3.org/2000/svg" viewBox="0 0 3851.48 1051.69">
  <g id="c" data-name="Layer 1">
    <g>
      <path d="M2317.96,1051.69c-234.47,0-470.94-56.76-705.66-169.66-314.17-151.12-593.94-227.82-825.58-227.82-103.68,0-197.68,15.35-280.87,46.27-91.26,33.92-168.02,85.46-228.14,153.21-45.65,51.44-64.31,93.66-64.49,94.08.31-.71.45-1.08.45-1.08L0,858.9c2.87-6.99,29.9-70.45,94.34-146.34,37.33-43.97,80.25-84.03,127.56-119.06,58.66-43.44,124.22-79.2,194.87-106.3,152.1-58.35,328.23-77.13,523.5-55.81,110.74,12.09,229.3,37.4,352.39,75.22,132.41,40.68,273.65,96.95,419.78,167.25,478.47,230.16,947.82,190.38,1395-118.21,179.18-123.65,318.53-267.61,403.88-366.6C3604.76,80.66,3655.86.79,3656.36,0l-.08.12,195.2,123.53c-2.31,3.66-57.85,90.93-160.06,210.23-59.57,69.53-123.17,136.17-189.04,198.05-82.65,77.65-169.21,148.09-257.28,209.36-227.05,157.96-465.48,256.82-708.66,293.84-72.54,11.04-145.43,16.55-218.48,16.56Z" style="fill: #0d101c; stroke-width: 0px;"/>
      <g>
        <path d="M241.85,670.08c-.04.55-.27,1.01-.69,1.37l-38.2,33.18c-.5.44-.57.87-.21,1.29l11.58,17.15c.37.42.72.48,1.05.19l24.58-21.36c.42-.37.88-.51,1.39-.44.51.08.9.36,1.18.85l11.05,16.28c.28.5.4,1.02.36,1.56-.04.55-.27,1.01-.69,1.37l-24.58,21.36c-.34.29-.41.72-.21,1.29l25.21,37.17c.28.5.4,1.02.36,1.56-.04.55-.27,1.01-.69,1.37l-17.4,15.11c-.42.37-.88.51-1.39.43-.51-.07-.9-.36-1.18-.85l-63.57-94.31c-.36-.42-.51-.92-.43-1.51.08-.58.33-1.06.75-1.43l57.74-50.16c.42-.37.88-.51,1.39-.44.51.08.9.36,1.18.85l11.03,16.52c.28.5.4,1.02.36,1.57Z" style="fill: #1a1d2a; stroke-width: 0px;"/>
        <path d="M348,710.83l-35.61-29.81c-.43-.25-.83-.25-1.2-.01l-8.95,5.84c-.47.3-.55.69-.24,1.16l19.44,39.56c.21.53.26,1.06.15,1.6-.11.54-.4.96-.87,1.27l-19.3,12.6c-.47.3-.94.39-1.44.24-.49-.14-.84-.48-1.06-1.01l-50.09-102.12c-.3-.46-.38-.98-.22-1.55.16-.57.47-1.01.94-1.31l40.28-26.29c8.2-5.35,16.21-7.25,24-5.69,7.8,1.56,14.28,6.3,19.45,14.22.61.93,1.49,2.49,2.64,4.66,3.24,6.79,4.58,13.63,4.01,20.51-.56,6.88-2.97,13.17-7.23,18.88-.35.49-.27.91.22,1.25l38.25,29.88c.21.13.41.33.6.61.55.84.26,1.62-.86,2.35l-20.28,13.23c-.93.61-1.81.58-2.64-.07ZM281.29,645.89l10.58,21.41c.12.59.46.7,1.02.33l15.1-9.86c3.64-2.37,5.91-5.45,6.83-9.24.92-3.79.19-7.5-2.18-11.14-1.83-2.8-4.18-4.42-7.06-4.86-2.88-.44-5.86.34-8.94,2.34l-14.96,9.77c-.56.37-.69.78-.38,1.25Z" style="fill: #1a1d2a; stroke-width: 0px;"/>
        <path d="M388.89,678.99c-9.19-3.06-16.2-9.72-21.04-20-1.18-2.52-2.01-4.53-2.47-6.04l-10.44-32c-2.7-8.08-3.39-16.03-2.08-23.84,1.31-7.81,4.39-14.86,9.24-21.14,4.86-6.28,11.21-11.28,19.07-14.97,7.25-3.41,14.19-5.02,20.81-4.81,6.62.21,12.54,2.13,17.75,5.76,5.22,3.64,9.39,8.78,12.52,15.43,1.23,2.62,2.06,4.63,2.47,6.04l10.59,31.93c2.79,8.28,3.55,16.36,2.26,24.22-1.28,7.87-4.38,14.95-9.28,21.26-4.91,6.31-11.34,11.33-19.3,15.08-10.88,5.12-20.91,6.15-30.11,3.09ZM421.24,642.82c1.78-4.71,1.76-9.78-.05-15.21l-10.79-33.13c-.19-.65-.56-1.58-1.13-2.79-2.09-4.43-4.98-7.38-8.68-8.84-3.7-1.46-7.67-1.19-11.9.8-4.63,2.18-7.84,5.63-9.62,10.34-1.78,4.71-1.76,9.78.05,15.2l10.94,33.06c.23.75.66,1.79,1.27,3.09,2.09,4.43,4.93,7.34,8.53,8.72,3.6,1.38,7.47,1.1,11.6-.84,4.73-2.23,7.99-5.7,9.77-10.41Z" style="fill: #1a1d2a; stroke-width: 0px;"/>
        <path d="M508.4,516.35c.25-.49.65-.82,1.18-.99l21.97-6.95c.53-.17,1.01-.12,1.45.15.44.27.68.69.75,1.25l20.81,111.82c.06.57-.04,1.09-.29,1.58-.26.49-.65.82-1.18.99l-21.02,6.64c-1.06.34-1.89.13-2.47-.62l-47.25-51.97c-.31-.25-.57-.32-.76-.2-.2.12-.23.39-.09.82l11.76,62.14c.06.57-.04,1.09-.29,1.58-.26.49-.65.82-1.18.99l-21.97,6.95c-.53.17-1.01.12-1.45-.15-.44-.27-.69-.69-.75-1.25l-20.81-111.82c-.17-.53-.1-1.05.21-1.55.31-.5.72-.84,1.26-1.01l21.18-6.69c.96-.3,1.73-.08,2.31.67l47.2,51.81c.21.29.41.37.6.25.19-.12.28-.41.25-.87l-11.71-61.98c-.06-.56.03-1.09.29-1.58Z" style="fill: #1a1d2a; stroke-width: 0px;"/>
        <path d="M641.44,488.05c.4.32.6.77.59,1.33l1.26,19.99c.1.55-.03,1.05-.39,1.52-.37.47-.82.75-1.37.86l-27.72,5.28c-.66.12-.93.46-.83,1.01l6.05,90.65c0,.57-.16,1.08-.47,1.54-.31.46-.74.74-1.29.84l-22.64,4.31c-.55.11-1.02,0-1.42-.32-.4-.32-.6-.76-.59-1.33l-6.05-90.65c-.1-.55-.38-.78-.81-.7l-26.9,5.12c-.55.1-1.02,0-1.42-.32-.4-.32-.6-.76-.59-1.33l-1.42-19.96c0-.57.16-1.08.47-1.54.31-.46.74-.74,1.28-.84l82.85-15.78c.55-.1,1.02,0,1.42.32Z" style="fill: #1a1d2a; stroke-width: 0px;"/>
        <path d="M741.06,502.04c-.35.43-.81.66-1.36.71l-50.56,4.59c-.67.06-.97.37-.92.92l-.64,20.68c.05.56.3.81.74.77l32.43-2.94c.55-.05,1.02.1,1.38.46.37.36.52.82.46,1.38l-.56,19.67c-.06.57-.27,1.06-.62,1.48-.35.43-.81.66-1.36.71l-32.43,2.94c-.44.04-.75.35-.92.92l-.67,22.2c.05.56.3.81.74.77l50.73-4.6c.55-.05,1.02.1,1.38.46.37.36.52.82.46,1.38l-.55,19.84c-.06.57-.27,1.06-.62,1.48-.35.42-.81.66-1.36.71l-76.34,6.93c-.56.05-1.02-.1-1.38-.46-.37-.36-.52-.82-.46-1.38l3.6-113.68c-.05-.55.13-1.04.54-1.47.41-.43.89-.67,1.44-.72l76.34-6.93c.55-.05,1.02.1,1.38.46.37.36.52.82.46,1.38l-.71,19.85c-.06.57-.27,1.06-.62,1.48Z" style="fill: #1a1d2a; stroke-width: 0px;"/>
        <path d="M828.28,479.33c.39-.39.86-.58,1.42-.58l23.05.02c.56,0,1,.2,1.34.59.33.39.44.86.33,1.42l-13.94,112.88c-.11.56-.36,1.03-.75,1.42-.39.39-.86.58-1.42.58l-22.04-.02c-1.11,0-1.84-.45-2.17-1.34l-29.35-63.81c-.22-.33-.45-.47-.67-.42-.22.06-.33.31-.33.75l-7.56,62.79c-.11.56-.36,1.03-.75,1.42-.39.39-.86.58-1.42.58l-23.05-.02c-.56,0-1-.19-1.34-.58-.33-.39-.45-.86-.33-1.42l13.94-112.88c0-.56.22-1.03.67-1.42.44-.39.95-.58,1.5-.58l22.21.02c1,0,1.67.45,2,1.34l29.34,63.65c.11.33.28.48.5.42.22-.05.39-.3.5-.75l7.56-62.62c.11-.56.36-1.03.75-1.42Z" style="fill: #1a1d2a; stroke-width: 0px;"/>
        <path d="M854.09,595.65c-.3-.42-.37-.89-.22-1.44l23.08-111.38c.05-.55.31-1.01.78-1.36.47-.35.99-.51,1.55-.46l41.11,3.38c11.76.97,20.87,4.6,27.34,10.88,6.46,6.29,9.3,14.25,8.5,23.91-.08,1-.33,2.6-.73,4.8l-8.92,43.17c-1.48,7.14-4.56,13.31-9.23,18.51-4.68,5.2-10.55,9.02-17.62,11.45-7.07,2.43-14.82,3.3-23.25,2.61l-41.11-3.38c-.56-.04-.98-.27-1.28-.69ZM885.78,575.05l16.64,1.37c4.33.36,8.17-.92,11.54-3.83,3.37-2.91,5.66-6.99,6.87-12.25l6.98-33.94c.17-.77.32-1.82.43-3.15.37-4.44-.51-8.03-2.63-10.77-2.12-2.74-5.18-4.28-9.17-4.61l-16.31-1.34c-.67-.05-1.02.2-1.07.75l-13.88,66.89c-.05.56.15.85.6.89Z" style="fill: #1a1d2a; stroke-width: 0px;"/>
        <path d="M983.45,608.29c-.26-.44-.29-.92-.09-1.46l32.84-108.9c.09-.55.39-.98.9-1.29.5-.31,1.03-.42,1.58-.32l40.65,7.01c11.63,2,20.39,6.42,26.27,13.26,5.88,6.83,8,15.02,6.36,24.57-.17.99-.56,2.56-1.15,4.72l-12.7,42.21c-2.11,6.98-5.72,12.85-10.83,17.62-5.12,4.77-11.3,8.05-18.56,9.85s-15.06,1.98-23.4.54l-40.65-7.01c-.55-.09-.95-.36-1.22-.8ZM1016.84,590.57l16.46,2.84c4.28.74,8.22-.19,11.83-2.79,3.61-2.6,6.25-6.46,7.93-11.6l9.96-33.19c.24-.75.48-1.78.7-3.1.76-4.39.2-8.04-1.67-10.96-1.87-2.92-4.78-4.72-8.73-5.4l-16.13-2.78c-.66-.11-1.03.1-1.13.65l-19.75,65.4c-.09.55.08.86.52.94Z" style="fill: #1a1d2a; stroke-width: 0px;"/>
        <path d="M1189.78,554.93c-.47.29-.97.38-1.51.25l-49.48-11.37c-.65-.15-1.04.05-1.16.59l-7.04,19.46c-.12.54.03.86.46.96l31.74,7.29c.54.12.93.41,1.17.87s.24.94,0,1.46l-6.65,18.52c-.23.52-.58.92-1.05,1.21-.47.29-.97.38-1.51.25l-31.74-7.29c-.43-.1-.82.1-1.16.59l-7.54,20.89c-.12.54.03.86.46.96l49.64,11.41c.54.12.93.42,1.17.87.24.46.24.94,0,1.46l-6.69,18.68c-.23.52-.58.92-1.05,1.22-.47.29-.97.38-1.51.25l-74.71-17.17c-.54-.12-.93-.41-1.17-.87-.24-.45-.24-.94,0-1.46l38.79-106.92c.12-.54.45-.95.97-1.23.52-.28,1.05-.36,1.6-.23l74.71,17.17c.54.12.93.42,1.17.87.24.46.24.94,0,1.46l-6.85,18.64c-.23.52-.58.92-1.05,1.21Z" style="fill: #1a1d2a; stroke-width: 0px;"/>
        <path d="M1182.41,642.95c-5.39-7.35-6.78-15.69-4.16-25.02.27-.96.81-2.49,1.63-4.57l1.34-2.92c.26-.5.62-.89,1.11-1.16.48-.27.99-.33,1.52-.18l21.71,6.09c.54.15.91.46,1.13.92.22.47.19.95-.06,1.46l-.86,1.84c-1.42,3.42-.92,6.88,1.5,10.4,2.42,3.52,6.53,6.08,12.32,7.71,4.93,1.38,8.93,1.26,11.98-.37,3.06-1.63,4.98-3.83,5.76-6.62.72-2.57.16-4.9-1.68-6.98-1.84-2.08-5.42-5.02-10.71-8.82l-3.34-2.32c-5.4-3.83-9.97-7.54-13.7-11.13-3.74-3.59-6.61-7.87-8.63-12.83-2.02-4.96-2.2-10.39-.54-16.29.24-.86.74-2.22,1.5-4.09,2.72-6.4,6.79-11.54,12.21-15.39,5.42-3.86,11.66-6.24,18.74-7.14,7.07-.9,14.42-.29,22.03,1.85,7.4,2.08,13.6,5.21,18.61,9.39,5.01,4.18,8.46,9.11,10.33,14.78,1.88,5.67,1.94,11.62.2,17.83-.27.96-.82,2.49-1.63,4.57l-.95,2.16c-.15.54-.49.93-1.03,1.19-.54.26-1.07.31-1.61.16l-21.54-6.05c-.54-.15-.94-.46-1.21-.95-.27-.48-.28-.97-.02-1.48l.48-1.08c1.48-3.63,1.21-7.29-.82-10.98-2.03-3.69-5.72-6.29-11.08-7.79-4.4-1.23-8.16-1.22-11.29.04-3.13,1.26-5.19,3.66-6.18,7.2-.54,1.93-.31,3.79.69,5.57,1,1.79,2.72,3.69,5.17,5.7,2.44,2.02,6.25,4.91,11.44,8.68,5.87,4.19,10.37,7.65,13.48,10.38,3.11,2.72,5.71,6.43,7.8,11.12,2.09,4.69,2.3,10.04.61,16.04-.24.86-.74,2.22-1.5,4.09-4.21,10.04-11.26,16.93-21.16,20.69-9.9,3.76-21.07,3.89-33.5.4-12.01-3.37-20.71-8.73-26.1-16.09Z" style="fill: #1a1d2a; stroke-width: 0px;"/>
        <path d="M1262.51,672.82c-.2-.47-.17-.96.11-1.46l47.14-103.51c.17-.53.52-.91,1.06-1.15.54-.24,1.08-.27,1.61-.11l21.82,6.88c1.17.37,1.55,1.19,1.15,2.46l-47.14,103.51c-.28.5-.66.87-1.14,1.13-.49.26-1,.3-1.53.13l-21.98-6.92c-.53-.17-.9-.49-1.1-.96Z" style="fill: #1a1d2a; stroke-width: 0px;"/>
        <path d="M1317.35,681.91c-4.37-8.47-4.74-17.91-1.12-28.32.95-2.73,1.77-4.75,2.45-6.04l15.18-30.97c3.72-7.66,8.71-13.79,14.97-18.4,6.25-4.6,13.28-7.43,21.08-8.5,7.79-1.06,15.74-.19,23.84,2.63,7.47,2.6,13.5,6.26,18.11,10.98,4.6,4.72,7.56,10.03,8.88,15.9,1.32,5.88.93,11.82-1.15,17.81-.33.95-.97,2.44-1.91,4.46l-.43.73c-.29.49-.68.85-1.18,1.09-.5.24-1.01.27-1.53.09l-21.77-7.57c-.53-.18-.88-.51-1.07-.99-.19-.48-.14-.96.15-1.45.25-.38.52-1,.82-1.84,1.28-3.68,1.14-7.18-.42-10.49-1.56-3.31-4.55-5.74-8.96-7.27-4.63-1.61-9.12-1.4-13.48.62-4.36,2.02-7.73,5.45-10.11,10.27l-16.05,32.43c-.29.49-.63,1.31-1.04,2.47-1.5,4.31-1.32,8.29.53,11.94,1.85,3.65,4.94,6.22,9.25,7.72,4.52,1.57,8.74,1.65,12.65.24,3.91-1.41,6.89-4.23,8.96-8.47l2.01-4.25c.39-.45.27-.79-.36-1.01l-15.3-5.32c-.53-.18-.88-.51-1.07-.99-.19-.48-.14-.96.15-1.45l8.08-16.64c.29-.49.68-.85,1.18-1.09.5-.24,1.01-.27,1.53-.09l39.28,13.65c.53.18.88.51,1.07.99.19.48.13.96-.15,1.45l-10.14,20.52c-3.69,7.56-8.62,13.62-14.81,18.19s-13.16,7.33-20.92,8.29c-7.76.96-15.74,0-23.94-2.84-11.15-3.88-18.9-10.05-23.26-18.52Z" style="fill: #1a1d2a; stroke-width: 0px;"/>
        <path d="M1510.58,638.39c.5-.22,1.01-.23,1.54-.03l21.46,8.4c.52.2.86.55,1.03,1.03.17.49.1.97-.21,1.44l-54.04,100.08c-.31.48-.71.83-1.22,1.05-.51.22-1.02.23-1.54.03l-20.53-8.03c-1.04-.41-1.55-1.08-1.54-2.04l-4.12-70.12c-.09-.39-.24-.6-.47-.63-.23-.03-.42.17-.58.58l-29.88,55.74c-.31.48-.71.83-1.22,1.05-.51.22-1.02.23-1.53.03l-21.46-8.4c-.52-.2-.86-.54-1.03-1.03-.17-.48-.1-.96.21-1.44l54.04-100.08c.2-.52.58-.88,1.14-1.08.55-.2,1.09-.2,1.61,0l20.68,8.09c.93.37,1.39,1.02,1.38,1.97l4.19,69.96c-.02.35.08.54.31.57.23.03.47-.14.74-.52l29.82-55.58c.3-.48.71-.83,1.22-1.05Z" style="fill: #1a1d2a; stroke-width: 0px;"/>
        <path d="M1613.86,706.62c-.51.21-1.02.2-1.54-.02l-46.64-20.05c-.61-.26-1.03-.14-1.25.37l-10.42,17.88c-.22.51-.13.86.28,1.03l29.92,12.86c.51.22.84.58,1,1.06.15.49.07.97-.25,1.44l-9.87,17.03c-.32.47-.74.8-1.25,1.01-.51.21-1.02.2-1.54-.02l-29.92-12.86c-.41-.18-.83-.05-1.25.37l-11.16,19.2c-.22.51-.13.86.28,1.03l46.79,20.12c.51.22.84.58,1,1.06.15.49.07.97-.25,1.44l-9.93,17.18c-.32.47-.74.8-1.25,1.01-.51.21-1.02.2-1.54-.02l-70.42-30.28c-.51-.22-.84-.57-1-1.06-.15-.49-.07-.97.25-1.44l57.33-98.24c.22-.51.61-.86,1.17-1.04.56-.18,1.1-.16,1.61.06l70.42,30.28c.51.22.84.58,1,1.06.15.49.07.97-.25,1.44l-10.08,17.11c-.32.47-.74.8-1.25,1.01Z" style="fill: #1a1d2a; stroke-width: 0px;"/>
        <path d="M1631.57,816.62l6.45-45.99c-.02-.5-.22-.84-.63-1.03l-9.69-4.5c-.51-.24-.88-.1-1.11.41l-23.28,37.43c-.34.46-.76.78-1.28.97-.52.19-1.03.17-1.53-.07l-20.9-9.71c-.51-.24-.83-.6-.97-1.09-.14-.49-.04-.97.29-1.43l60.13-96.54c.23-.5.63-.84,1.2-1.01.57-.17,1.1-.13,1.61.1l43.62,20.26c8.88,4.13,14.73,9.91,17.53,17.35,2.8,7.44,2.21,15.45-1.77,24.03-.47,1.01-1.32,2.58-2.55,4.71-4.05,6.34-9.15,11.1-15.28,14.26-6.14,3.17-12.75,4.45-19.84,3.86-.6-.03-.92.25-.95.85l-5.11,48.26c0,.25-.06.52-.2.83-.42.91-1.24,1.08-2.45.52l-21.96-10.2c-1.01-.47-1.46-1.23-1.34-2.28ZM1651.36,725.64l-12.57,20.31c-.44.41-.35.76.25,1.04l16.36,7.6c3.94,1.83,7.76,2.13,11.46.9,3.7-1.23,6.47-3.81,8.29-7.75,1.41-3.03,1.54-5.88.39-8.57-1.15-2.68-3.39-4.8-6.72-6.34l-16.21-7.53c-.61-.28-1.03-.17-1.26.34Z" style="fill: #1a1d2a; stroke-width: 0px;"/>
        <path d="M1696.1,846.67l97.61-81.08c.7-.79,1.62-.94,2.74-.46l20.86,8.98c1.33.57,1.38,1.44.15,2.61l-97.46,81.14c-.81.74-1.77.87-2.89.39l-20.86-8.98c-1.33-.57-1.38-1.44-.15-2.61Z" style="fill: #1a1d2a; stroke-width: 0px;"/>
        <path d="M1808.19,894.78c-.18-.48-.12-.96.17-1.45l51.61-101.35c.19-.52.56-.89,1.11-1.11.55-.21,1.09-.23,1.61-.04l21.5,7.82c1.15.42,1.5,1.26,1.04,2.51l-51.61,101.35c-.3.49-.69.84-1.19,1.08-.5.23-1.01.25-1.53.06l-21.66-7.88c-.52-.19-.88-.52-1.06-1.01Z" style="fill: #1a1d2a; stroke-width: 0px;"/>
        <path d="M1851.39,910.77c-.2-.47-.17-.96.11-1.45l47.11-103.52c.17-.53.52-.91,1.06-1.15.54-.24,1.08-.27,1.61-.11l21.82,6.87c1.17.37,1.55,1.19,1.15,2.46l-37.8,82.82c-.17.53-.04.86.39,1l49.38,15.54c.53.17.9.49,1.1.96.2.47.16.96-.11,1.46l-8.15,18.09c-.28.5-.68.87-1.22,1.1-.54.24-1.08.27-1.61.11l-73.75-23.21c-.53-.17-.9-.49-1.1-.96Z" style="fill: #1a1d2a; stroke-width: 0px;"/>
        <path d="M1944.39,939.56c-.23-.46-.23-.94.02-1.46l40.48-106.29c.13-.54.46-.95.99-1.22.52-.27,1.06-.34,1.6-.21l22.21,5.48c1.19.29,1.62,1.09,1.3,2.39l-32.49,85.04c-.13.54.02.86.45.97l50.26,12.39c.54.13.93.43,1.16.89.23.46.22.95-.02,1.46l-6.99,18.57c-.24.51-.63.91-1.15,1.18-.53.27-1.06.34-1.6.21l-75.07-18.51c-.54-.13-.93-.43-1.16-.89Z" style="fill: #1a1d2a; stroke-width: 0px;"/>
        <path d="M2054.17,957.46c-5.77-7.45-7.73-16.43-5.9-26.96.23-1.32.68-3.27,1.36-5.87l22.1-72.43c.2-.53.53-.95.98-1.27.45-.32.95-.43,1.5-.33l22.71,3.95c.55.09.95.36,1.22.8.26.44.29.93.09,1.46l-22.1,72.43c-.21.53-.41,1.4-.62,2.6-.76,4.39-.09,8.12,2.03,11.2,2.12,3.08,5.37,5,9.76,5.77,4.71.82,9.02-.04,12.91-2.58,3.89-2.54,6.56-6.34,8-11.41l22.1-72.43c.2-.53.53-.95.98-1.27.45-.32.95-.43,1.5-.33l22.71,3.95c.55.1.95.37,1.22.8.26.44.29.93.09,1.46l-22.1,72.43c-2.38,7.84-6.25,14.45-11.59,19.85-5.35,5.4-11.71,9.18-19.09,11.34-7.38,2.16-15.3,2.51-23.74,1.04-11.63-2.02-20.33-6.76-26.09-14.2Z" style="fill: #1a1d2a; stroke-width: 0px;"/>
        <path d="M2155.64,974.77c-6.59-6.3-9.41-14.27-8.46-23.91.1-1,.37-2.59.81-4.79l.81-3.11c.16-.54.46-.99.89-1.34.42-.35.91-.5,1.47-.44l22.44,2.22c.55.05.98.29,1.27.71.29.42.36.9.19,1.45l-.53,1.96c-.8,3.61.29,6.94,3.29,9.97,3,3.04,7.49,4.85,13.47,5.44,5.09.5,9.01-.31,11.74-2.45,2.73-2.13,4.23-4.64,4.52-7.52.26-2.66-.7-4.85-2.88-6.58-2.18-1.73-6.21-4-12.08-6.82l-3.69-1.71c-5.99-2.83-11.13-5.69-15.43-8.57-4.3-2.88-7.88-6.59-10.73-11.13-2.85-4.53-3.98-9.85-3.38-15.94.09-.89.34-2.32.76-4.29,1.56-6.78,4.68-12.54,9.34-17.29,4.66-4.74,10.4-8.17,17.21-10.3,6.81-2.12,14.15-2.8,22.01-2.02,7.65.75,14.3,2.75,19.96,6,5.66,3.24,9.92,7.5,12.75,12.75,2.84,5.26,3.94,11.1,3.3,17.53-.1,1-.37,2.59-.81,4.79l-.56,2.29c-.06.56-.33,1-.8,1.35-.48.35-1,.49-1.55.43l-22.27-2.2c-.56-.05-1.01-.29-1.35-.72-.35-.42-.44-.91-.28-1.45l.28-1.15c.82-3.83-.08-7.39-2.72-10.67-2.64-3.28-6.73-5.2-12.27-5.74-4.54-.45-8.25.22-11.11,2.01-2.86,1.79-4.47,4.51-4.83,8.16-.2,1.99.35,3.79,1.65,5.37,1.3,1.58,3.32,3.16,6.08,4.71,2.75,1.56,7.01,3.74,12.78,6.55,6.52,3.11,11.54,5.73,15.08,7.87,3.54,2.14,6.74,5.34,9.62,9.59,2.88,4.26,4.01,9.49,3.4,15.69-.09.89-.34,2.32-.76,4.29-2.39,10.62-8.13,18.64-17.23,24.06-9.09,5.42-20.07,7.5-32.92,6.23-12.41-1.23-21.91-4.99-28.5-11.29Z" style="fill: #1a1d2a; stroke-width: 0px;"/>
        <path d="M2345.2,876.34c.32.4.42.87.3,1.43l-3,19.8c-.01.56-.25,1.03-.7,1.4-.46.38-.96.56-1.52.55l-28.21-.71c-.67-.02-1.01.25-1.02.81l-13.29,89.87c-.13.55-.39,1.02-.79,1.4-.4.38-.88.56-1.43.55l-23.04-.58c-.56-.01-1-.22-1.32-.62-.32-.4-.42-.87-.3-1.43l13.29-89.87c.01-.56-.2-.84-.65-.85l-27.38-.69c-.56-.01-1-.22-1.32-.62-.32-.4-.42-.87-.3-1.43l2.84-19.81c.12-.55.39-1.02.79-1.4.4-.38.88-.56,1.43-.55l84.31,2.12c.56.01,1,.22,1.32.62Z" style="fill: #1a1d2a; stroke-width: 0px;"/>
        <path d="M2404.01,987.77l-15.75-43.68c-.25-.43-.59-.64-1.03-.62l-10.67.54c-.56.03-.82.32-.79.88l-3.13,43.97c-.08.56-.31,1.05-.68,1.46-.37.41-.83.63-1.39.66l-23.02,1.16c-.56.03-1.01-.14-1.36-.52-.35-.37-.49-.84-.41-1.4l8.16-113.45c-.03-.56.17-1.04.6-1.45.42-.41.91-.63,1.47-.66l48.04-2.42c9.78-.49,17.65,1.9,23.6,7.17,5.95,5.28,9.17,12.64,9.64,22.09.06,1.11.03,2.9-.06,5.35-.62,7.5-2.91,14.08-6.86,19.74-3.95,5.66-9.2,9.88-15.75,12.67-.55.25-.69.65-.44,1.19l17.99,45.08c.12.22.19.49.21.83.05,1-.59,1.53-1.93,1.6l-24.18,1.22c-1.11.06-1.86-.41-2.24-1.39ZM2379.09,898.06l-1.64,23.83c-.2.57.04.83.71.8l18.01-.91c4.34-.22,7.85-1.73,10.56-4.54,2.7-2.81,3.94-6.39,3.72-10.72-.17-3.34-1.39-5.92-3.65-7.76-2.27-1.83-5.23-2.66-8.9-2.48l-17.85.9c-.67.03-.99.33-.96.88Z" style="fill: #1a1d2a; stroke-width: 0px;"/>
        <path d="M2524.01,976.3c-.38-.29-.65-.64-.82-1.07l-4.29-14.42c-.28-.41-.58-.6-.92-.55l-36.58,4.89c-.33.04-.58.3-.74.77l-3.99,15.53c-.41,1.18-1.16,1.84-2.26,1.99l-24.5,3.28c-.66.09-1.16-.04-1.48-.39-.33-.35-.38-.93-.15-1.75l33.04-118.32c.4-1.17,1.1-1.83,2.1-1.96l30.29-4.05c.99-.13,1.73.33,2.21,1.39l35.66,109.13.09.66c.15,1.1-.39,1.74-1.6,1.9l-24.66,3.3c-.55.07-1.02-.03-1.39-.32ZM2487.51,942.76l23.84-3.19c.55-.07.78-.44.69-1.1l-12.64-41.61c-.17-.42-.36-.6-.57-.51-.21.09-.36.3-.42.65l-11.53,44.84c-.24.71-.03,1.02.63.93Z" style="fill: #1a1d2a; stroke-width: 0px;"/>
        <path d="M2625.48,839.32c.41.32.61.76.61,1.33l1.49,19.97c.11.55-.02,1.05-.37,1.52-.36.47-.81.76-1.36.87l-27.66,5.6c-.66.13-.93.47-.82,1.02l7.09,90.57c0,.57-.15,1.08-.46,1.54-.31.46-.73.74-1.28.85l-22.59,4.57c-.55.11-1.02,0-1.43-.31-.4-.31-.61-.75-.61-1.33l-7.09-90.57c-.11-.54-.39-.77-.82-.69l-26.84,5.43c-.55.11-1.02,0-1.43-.31-.4-.32-.61-.76-.61-1.33l-1.65-19.94c0-.57.15-1.08.46-1.54.3-.46.73-.74,1.28-.85l82.66-16.73c.54-.11,1.02,0,1.43.31Z" style="fill: #1a1d2a; stroke-width: 0px;"/>
        <path d="M2658.85,941.63c-8.54-4.58-14.31-12.34-17.33-23.29-.74-2.68-1.21-4.8-1.41-6.37l-4.85-33.31c-1.28-8.42-.62-16.37,2-23.85,2.62-7.48,6.85-13.9,12.71-19.27,5.85-5.37,12.97-9.2,21.34-11.51,7.73-2.13,14.83-2.53,21.32-1.2,6.49,1.33,11.99,4.23,16.52,8.7s7.76,10.25,9.71,17.33c.77,2.79,1.24,4.92,1.41,6.37l5.01,33.26c1.34,8.64.71,16.72-1.89,24.25-2.6,7.53-6.86,13.99-12.76,19.37-5.91,5.38-13.1,9.24-21.58,11.58-11.59,3.2-21.66,2.5-30.19-2.07ZM2696.88,911.49c2.55-4.34,3.4-9.34,2.54-14.99l-5-34.48c-.07-.67-.28-1.65-.64-2.94-1.3-4.72-3.65-8.12-7.05-10.18-3.4-2.06-7.35-2.48-11.86-1.24-4.94,1.36-8.69,4.21-11.24,8.55-2.56,4.34-3.4,9.34-2.54,14.99l5.16,34.44c.1.78.34,1.87.73,3.26,1.3,4.72,3.61,8.07,6.93,10.04,3.32,1.97,7.17,2.35,11.57,1.14,5.04-1.39,8.84-4.26,11.4-8.6Z" style="fill: #1a1d2a; stroke-width: 0px;"/>
        <path d="M2804.38,903.63l-27.53-37.4c-.36-.34-.75-.44-1.17-.3l-10.08,3.55c-.53.19-.69.54-.51,1.07l9.5,43.04c.08.56,0,1.09-.24,1.59-.24.5-.62.84-1.14,1.02l-21.74,7.66c-.53.19-1.01.15-1.45-.11-.44-.25-.71-.66-.79-1.23l-24.46-111.08c-.18-.52-.13-1.04.16-1.56.29-.51.7-.87,1.22-1.05l45.36-15.99c9.24-3.26,17.46-3.2,24.67.16,7.21,3.36,12.38,9.51,15.53,18.43.37,1.05.86,2.77,1.46,5.15,1.54,7.37,1.21,14.33-.96,20.88-2.18,6.55-6.01,12.09-11.49,16.62-.45.4-.48.82-.08,1.27l30.07,38.09c.18.17.32.42.44.73.33.95-.13,1.64-1.39,2.08l-22.84,8.05c-1.05.37-1.9.14-2.55-.7ZM2754.96,824.73l5.21,23.31c-.03.6.28.79.91.57l17.01-6c4.1-1.44,7.04-3.9,8.83-7.36,1.79-3.46,1.96-7.24.52-11.34-1.11-3.15-3.01-5.28-5.71-6.4-2.69-1.11-5.78-1.06-9.24.16l-16.85,5.94c-.63.22-.85.6-.67,1.12Z" style="fill: #1a1d2a; stroke-width: 0px;"/>
        <path d="M2873.89,876.12l6.6-126.72c-.1-1.05.4-1.83,1.52-2.33l20.75-9.25c1.32-.59,2-.04,2.02,1.66l-6.44,126.65c0,1.1-.56,1.89-1.68,2.39l-20.74,9.25c-1.32.59-1.99.04-2.02-1.66Z" style="fill: #1a1d2a; stroke-width: 0px;"/>
        <path d="M2994.92,813.05c-9.14-2.29-16.24-8.14-21.31-17.55-.63-1.18-1.49-2.99-2.56-5.45l-27.4-70.6c-.17-.54-.17-1.08-.01-1.61.16-.53.48-.92.97-1.19l20.29-10.93c.49-.26.98-.3,1.45-.12.48.19.8.55.97,1.09l27.4,70.6c.17.54.54,1.35,1.12,2.43,2.11,3.92,4.95,6.44,8.52,7.55,3.57,1.11,7.32.61,11.24-1.5,4.21-2.27,7.06-5.61,8.55-10.01,1.48-4.4,1.23-9.04-.76-13.91l-27.4-70.6c-.17-.54-.17-1.08-.01-1.61.16-.53.48-.92.97-1.19l20.29-10.93c.49-.26.97-.3,1.45-.12.48.19.8.55.97,1.09l27.4,70.6c2.97,7.63,4.03,15.22,3.16,22.77-.87,7.55-3.53,14.45-8,20.72-4.47,6.27-10.47,11.43-18.02,15.49-10.39,5.6-20.15,7.25-29.29,4.96Z" style="fill: #1a1d2a; stroke-width: 0px;"/>
        <path d="M3077.47,776.21c-.49-.17-.82-.51-1.01-1.05l-45.62-104.19c-.28-.48-.33-1-.15-1.56.18-.56.51-.98,1-1.27l19.68-11.66c1.05-.62,1.92-.36,2.6.79l45.62,104.19c.19.54.21,1.07.08,1.6-.14.54-.45.94-.92,1.23l-19.83,11.75c-.48.29-.96.34-1.45.18Z" style="fill: #1a1d2a; stroke-width: 0px;"/>
        <path d="M3145.39,735.33c-.49-.14-.85-.47-1.07-.99l-51.34-101.49c-.31-.46-.39-.98-.24-1.55.15-.57.46-1.01.92-1.32l34.26-22.97c9.8-6.57,19.19-9.41,28.16-8.52,8.97.89,16.16,5.36,21.55,13.4.56.83,1.36,2.24,2.42,4.21l19.92,39.32c3.29,6.51,4.73,13.25,4.31,20.23-.42,6.98-2.63,13.62-6.64,19.93s-9.54,11.82-16.56,16.53l-34.26,22.97c-.46.31-.94.4-1.44.26ZM3157.34,699.47l13.87-9.3c3.61-2.42,5.82-5.81,6.64-10.18.82-4.37.07-8.99-2.26-13.87l-15.69-30.9c-.34-.71-.88-1.62-1.63-2.73-2.48-3.7-5.4-5.96-8.77-6.79-3.37-.82-6.72-.12-10.05,2.11l-13.59,9.11c-.55.37-.68.79-.37,1.25l30.82,60.97c.31.46.65.57,1.02.32Z" style="fill: #1a1d2a; stroke-width: 0px;"/>
        <path d="M3248.37,548.43c-.08.55-.34.98-.79,1.32l-40.75,30.27c-.54.4-.64.82-.31,1.27l10.24,17.98c.33.45.68.54,1.03.27l26.14-19.42c.45-.33.92-.44,1.42-.33.5.12.87.43,1.11.94l9.77,17.08c.24.52.32,1.04.24,1.59-.08.55-.35.98-.79,1.32l-26.14,19.42c-.36.27-.46.69-.31,1.27l11,19.29c.33.45.68.54,1.03.27l40.89-30.37c.45-.33.92-.44,1.42-.33.5.12.87.43,1.11.94l9.87,17.21c.24.52.32,1.04.24,1.59-.08.55-.34.98-.79,1.32l-61.53,45.71c-.45.33-.92.44-1.42.33-.5-.11-.87-.42-1.11-.94l-56.19-98.89c-.33-.45-.44-.96-.31-1.54.12-.58.41-1.03.86-1.37l61.53-45.71c.45-.33.92-.44,1.42-.33.5.11.87.43,1.11.94l9.74,17.31c.24.52.32,1.04.24,1.59Z" style="fill: #1a1d2a; stroke-width: 0px;"/>
        <path d="M3312.76,607.6c-9.12.18-16.74-3.49-22.86-11-.63-.78-1.57-2.1-2.8-3.97l-1.62-2.78c-.27-.5-.37-1.03-.31-1.58.06-.55.3-1,.73-1.35l17.48-14.24c.43-.35.9-.48,1.41-.39.51.09.89.39,1.16.89l1.01,1.76c1.97,3.13,5.1,4.71,9.37,4.75,4.27.04,8.73-1.84,13.39-5.64,3.97-3.23,6.17-6.57,6.6-10.01.43-3.44-.27-6.28-2.1-8.52-1.69-2.07-3.91-2.95-6.67-2.64s-7.22,1.54-13.37,3.68l-3.82,1.39c-6.24,2.21-11.9,3.81-16.99,4.8-5.09.99-10.24.88-15.46-.33-5.22-1.2-9.76-4.18-13.63-8.93-.56-.69-1.39-1.88-2.48-3.58-3.67-5.91-5.52-12.2-5.56-18.85s1.62-13.13,4.95-19.44c3.33-6.31,8.06-11.96,14.19-16.95,5.96-4.85,12.08-8.12,18.39-9.82,6.3-1.69,12.32-1.67,18.04.06,5.72,1.73,10.62,5.1,14.7,10.1.63.78,1.57,2.1,2.8,3.96l1.22,2.02c.35.43.48.94.38,1.52-.1.59-.36,1.05-.8,1.4l-17.35,14.14c-.43.35-.92.5-1.47.44-.55-.05-.96-.33-1.22-.84l-.61-1.01c-2.12-3.3-5.27-5.19-9.45-5.65-4.19-.47-8.44,1.06-12.75,4.58-3.54,2.88-5.69,5.97-6.46,9.25-.77,3.29,0,6.35,2.33,9.2,1.27,1.55,2.92,2.44,4.95,2.64,2.04.21,4.58-.1,7.63-.94,3.05-.83,7.61-2.29,13.68-4.36,6.81-2.39,12.23-4.07,16.24-5.05,4.02-.97,8.55-.97,13.59.02,5.04.99,9.53,3.9,13.47,8.73.56.69,1.39,1.88,2.48,3.58,5.79,9.22,7.37,18.95,4.74,29.21-2.63,10.26-8.95,19.46-18.96,27.62-9.67,7.88-19.06,11.91-28.18,12.08Z" style="fill: #1a1d2a; stroke-width: 0px;"/>
        <path d="M3384.93,556.37c-.51-.08-.9-.36-1.18-.85l-63.57-94.32c-.36-.42-.51-.92-.43-1.51.08-.58.33-1.06.75-1.43l17.27-15c.92-.8,1.82-.7,2.7.31l63.57,94.32c.28.5.4,1.02.36,1.56-.04.55-.27,1.01-.69,1.37l-17.4,15.11c-.42.37-.88.51-1.39.43Z" style="fill: #1a1d2a; stroke-width: 0px;"/>
        <path d="M3423.08,512.51c-9.53-.14-18.03-4.25-25.51-12.35-1.96-2.12-3.36-3.79-4.17-5.01l-20.17-27.98c-5.01-6.89-8.07-14.18-9.18-21.87-1.12-7.69-.31-15.22,2.43-22.6,2.73-7.38,7.25-13.97,13.54-19.79,5.8-5.37,11.88-8.96,18.21-10.8,6.34-1.84,12.41-1.95,18.21-.35,5.81,1.61,10.86,4.74,15.17,9.4.68.74,1.69,2,3.04,3.78l.44.73c.3.49.43,1,.41,1.55-.02.55-.24,1.02-.65,1.39l-16.92,15.64c-.41.38-.87.54-1.38.48-.51-.06-.91-.33-1.21-.82-.22-.4-.63-.93-1.24-1.58-2.64-2.86-5.8-4.38-9.45-4.57-3.66-.18-7.2,1.31-10.63,4.49-3.6,3.33-5.53,7.39-5.8,12.18-.27,4.8,1.17,9.38,4.3,13.76l21.06,29.43c.3.49.86,1.18,1.69,2.08,3.1,3.35,6.69,5.07,10.79,5.15,4.09.08,7.82-1.42,11.17-4.52,3.51-3.25,5.57-6.93,6.17-11.04.6-4.11-.49-8.07-3.25-11.89l-2.81-3.77c-.21-.56-.57-.61-1.06-.16l-11.9,10.99c-.41.38-.87.54-1.38.48-.51-.06-.91-.33-1.21-.82l-10.87-14.96c-.3-.48-.43-1-.41-1.55.02-.55.24-1.01.65-1.39l30.54-28.22c.41-.38.87-.54,1.38-.48.51.06.91.33,1.21.82l13.33,18.61c4.93,6.81,7.96,14.02,9.08,21.63,1.12,7.61.27,15.06-2.54,22.35-2.81,7.3-7.4,13.89-13.78,19.78-8.67,8.01-17.76,11.95-27.29,11.81Z" style="fill: #1a1d2a; stroke-width: 0px;"/>
        <path d="M3467.16,320.2c0-.55.19-1.02.58-1.42l16.23-16.36c.39-.39.84-.57,1.36-.54.51.04.93.29,1.24.76l70.38,89.35c.32.47.48.98.48,1.53,0,.55-.19,1.03-.58,1.42l-15.53,15.65c-.79.79-1.61.99-2.48.6l-65.99-24.07c-.39-.08-.65-.02-.77.18-.12.2-.02.46.3.77l39.28,49.56c.32.47.48.98.48,1.53,0,.55-.19,1.02-.58,1.42l-16.23,16.36c-.39.4-.84.58-1.36.54-.51-.04-.92-.29-1.24-.76l-70.38-89.35c-.39-.39-.57-.88-.54-1.47.04-.59.25-1.08.64-1.48l15.64-15.77c.71-.71,1.49-.87,2.36-.48l65.87,23.95c.31.16.53.14.65-.06.12-.2.06-.49-.18-.88l-39.16-49.44c-.32-.47-.48-.98-.48-1.53Z" style="fill: #1a1d2a; stroke-width: 0px;"/>
        <path d="M3563.34,249.51c.02.55-.15,1.03-.53,1.44l-34.25,37.48c-.45.49-.47.93-.06,1.3l13.47,15.71c.41.38.77.4,1.07.07l21.97-24.04c.38-.41.82-.61,1.33-.59.51.02.94.26,1.27.71l12.85,14.91c.34.46.52.96.54,1.51.02.55-.15,1.03-.53,1.44l-21.97,24.04c-.3.33-.32.76-.06,1.3l14.47,16.84c.41.38.77.4,1.07.07l34.36-37.6c.38-.41.82-.61,1.33-.59.51.02.94.25,1.27.71l12.97,15.02c.34.46.52.96.54,1.51.02.55-.15,1.03-.53,1.44l-51.71,56.58c-.38.41-.82.61-1.33.59-.51-.02-.94-.25-1.27-.71l-73.99-86.39c-.41-.38-.61-.86-.6-1.45.01-.59.21-1.09.58-1.5l51.71-56.58c.38-.41.82-.61,1.33-.59.51.02.94.26,1.27.71l12.86,15.14c.34.46.52.96.54,1.51Z" style="fill: #1a1d2a; stroke-width: 0px;"/>
        <path d="M3672.3,263.29l-42.69-18.28c-.48-.11-.87,0-1.16.34l-6.89,8.17c-.36.43-.32.82.1,1.18l30.02,32.28c.35.45.55.94.6,1.49.05.55-.11,1.04-.47,1.46l-14.85,17.62c-.36.43-.79.64-1.31.64-.51,0-.95-.21-1.3-.66l-77.41-83.34c-.42-.36-.64-.83-.66-1.42-.01-.59.16-1.1.52-1.53l30.99-36.78c6.31-7.49,13.43-11.62,21.34-12.37,7.92-.76,15.49,1.92,22.73,8.01.85.72,2.14,1.95,3.87,3.7,5.06,5.57,8.31,11.74,9.76,18.48,1.45,6.75.96,13.47-1.48,20.16-.19.57,0,.95.57,1.14l45.24,17.58c.24.06.49.19.75.41.77.64.72,1.48-.14,2.5l-15.6,18.52c-.72.85-1.57,1.08-2.55.69ZM3589.7,220.34l16.31,17.45c.28.53.64.54,1.07.03l11.62-13.79c2.8-3.32,4.09-6.93,3.88-10.82-.21-3.89-1.98-7.24-5.3-10.04-2.55-2.15-5.28-3.02-8.17-2.62-2.89.41-5.52,2.01-7.88,4.82l-11.51,13.67c-.43.51-.43.95,0,1.3Z" style="fill: #1a1d2a; stroke-width: 0px;"/>
      </g>
    </g>
  </g>
</svg>