<?xml version="1.0" encoding="UTF-8"?>
<svg id="Layer_2" data-name="Layer 2" xmlns="http://www.w3.org/2000/svg" viewBox="0 0 266.35 81">
  <defs>
    <style>
      .cls-1 {
        fill: #606060;
      }

      .cls-1, .cls-2 {
        stroke-width: 0px;
      }
    </style>
  </defs>
  <g id="Layer_1-2" data-name="Layer 1">
    <g>
      <rect class="cls-2" width="266.35" height="81"/>
      <g>
        <path class="cls-1" d="m36.35,55.47l3.77-30.87c.06-.3.23-.45.5-.45h10.21c2.57,0,4.58.64,6.04,1.93s2.18,3.05,2.18,5.29c0,.27-.03.71-.09,1.32l-1.82,14.71c-.3,2.63-1.38,4.71-3.22,6.24-1.85,1.53-4.18,2.29-6.99,2.29h-10.21c-.3,0-.42-.15-.36-.45Zm2.72-1.68h8.26c2.06,0,3.75-.6,5.08-1.79,1.33-1.2,2.13-2.82,2.41-4.88l1.77-14.16c.06-.48.09-.85.09-1.09,0-1.75-.53-3.12-1.59-4.11s-2.53-1.48-4.4-1.48h-8.26c-.12,0-.18.06-.18.18l-3.36,27.14c0,.12.06.18.18.18Z"/>
        <path class="cls-1" d="m86.65,26.14c-.09.09-.2.14-.32.14h-16.7c-.12,0-.18.06-.18.18l-1.54,12.26c0,.12.06.18.18.18h11.85c.3,0,.42.15.36.45l-.14,1.23c-.06.3-.23.45-.5.45h-11.85c-.12,0-.18.06-.18.18l-1.54,12.39c0,.12.06.18.18.18h16.66c.27,0,.41.15.41.45l-.18,1.23c0,.12-.04.23-.14.32s-.21.14-.36.14h-18.75c-.3,0-.42-.15-.36-.45l3.77-30.87c.06-.3.23-.45.5-.45h18.75c.15,0,.26.05.34.14.08.09.1.2.07.32l-.14,1.23c-.03.12-.09.23-.18.32Z"/>
        <path class="cls-1" d="m91.8,54.35c-1.68-1.29-2.52-3.05-2.52-5.29,0-.45.01-.8.04-1.04l.18-1.5c.06-.3.23-.45.5-.45h1.36c.15,0,.26.05.34.14.08.09.1.2.07.32l-.18,1.36c-.03.18-.05.44-.05.77,0,1.66.67,3,2.02,3.99,1.35,1,3.23,1.5,5.65,1.5,2.63,0,4.67-.6,6.13-1.79,1.45-1.2,2.18-2.82,2.18-4.88,0-1.39-.57-2.58-1.7-3.56-1.13-.98-3.11-2.12-5.92-3.43-2-.91-3.51-1.67-4.54-2.29-1.03-.62-1.86-1.37-2.5-2.25s-.95-1.98-.95-3.31c0-.48.01-.85.04-1.09.3-2.48,1.37-4.4,3.2-5.74s4.21-2.02,7.15-2.02,5.26.64,6.88,1.93,2.43,3.03,2.43,5.24c0,.24-.03.63-.09,1.18l-.09,1.04c-.03.12-.09.23-.18.32-.09.09-.2.14-.32.14h-1.45c-.15,0-.27-.05-.34-.14-.08-.09-.1-.2-.07-.32l.14-.91c.03-.18.04-.45.04-.82,0-1.69-.64-3.04-1.91-4.04-1.27-1-3.09-1.5-5.45-1.5s-4.02.48-5.33,1.43-2.08,2.32-2.29,4.11c-.03.18-.04.45-.04.82,0,1,.26,1.83.77,2.5.51.67,1.24,1.26,2.18,1.77.94.51,2.36,1.2,4.27,2.04,2.88,1.24,5,2.49,6.38,3.74,1.38,1.26,2.07,2.85,2.07,4.79,0,1.79-.45,3.38-1.34,4.77-.89,1.39-2.17,2.47-3.84,3.25-1.67.77-3.63,1.16-5.9,1.16-3,0-5.33-.64-7.01-1.93Z"/>
        <path class="cls-1" d="m116.01,55.47l3.77-30.87c.06-.3.23-.45.5-.45h1.45c.27,0,.41.15.41.45l-3.81,30.87c-.06.3-.23.45-.5.45h-1.45c-.3,0-.42-.15-.36-.45Z"/>
        <path class="cls-1" d="m129.79,54.04c-1.62-1.5-2.43-3.5-2.43-6.01,0-.3.03-.79.09-1.45l1.59-13.07c.36-2.94,1.57-5.29,3.63-7.06,2.06-1.77,4.6-2.66,7.63-2.66,2.72,0,4.89.74,6.51,2.22,1.62,1.48,2.43,3.45,2.43,5.9,0,.27-.03.71-.09,1.32l-.09.63c-.06.3-.23.45-.5.45h-1.45c-.3,0-.42-.15-.36-.45l.04-.59c.06-.48.09-.85.09-1.09,0-1.91-.61-3.43-1.84-4.56s-2.88-1.7-4.97-1.7c-2.33,0-4.29.69-5.88,2.07s-2.52,3.19-2.79,5.42l-1.63,13.25c-.06.48-.09.85-.09,1.09,0,1.97.63,3.53,1.88,4.68,1.25,1.15,2.94,1.72,5.06,1.72,2.3,0,4.23-.66,5.79-1.97s2.46-3.06,2.7-5.24l.59-4.58c0-.12-.06-.18-.18-.18h-6.85c-.3,0-.42-.15-.36-.45l.14-1.23c.06-.3.23-.45.5-.45h8.94c.3,0,.42.15.36.45l-.73,5.9c-.36,3.06-1.57,5.47-3.61,7.24-2.04,1.77-4.58,2.66-7.6,2.66-2.72,0-4.9-.75-6.51-2.25Z"/>
        <path class="cls-1" d="m176.89,24.28c.09-.09.21-.14.36-.14h1.45c.12,0,.22.05.29.14.08.09.1.2.07.32l-3.77,30.87c-.03.12-.09.23-.18.32s-.2.14-.32.14h-1.45c-.21,0-.38-.11-.5-.32l-12.66-26.65c-.03-.09-.08-.13-.14-.11-.06.02-.09.07-.09.16l-3.27,26.46c-.06.3-.23.45-.5.45h-1.45c-.3,0-.42-.15-.36-.45l3.77-30.87c.06-.3.23-.45.5-.45h1.5c.24,0,.41.11.5.32l12.62,26.65c.03.09.08.13.14.11.06-.01.09-.07.09-.16l3.27-26.46c0-.12.04-.23.14-.32Z"/>
        <path class="cls-1" d="m206.66,26.14c-.09.09-.2.14-.32.14h-16.7c-.12,0-.18.06-.18.18l-1.54,12.26c0,.12.06.18.18.18h11.85c.3,0,.42.15.36.45l-.14,1.23c-.06.3-.23.45-.5.45h-11.85c-.12,0-.18.06-.18.18l-1.54,12.39c0,.12.06.18.18.18h16.66c.27,0,.41.15.41.45l-.18,1.23c0,.12-.04.23-.14.32s-.21.14-.36.14h-18.75c-.3,0-.42-.15-.36-.45l3.77-30.87c.06-.3.23-.45.5-.45h18.75c.15,0,.26.05.34.14.08.09.1.2.07.32l-.14,1.23c-.03.12-.09.23-.18.32Z"/>
        <path class="cls-1" d="m228.13,55.6l-4.95-14.44c-.03-.09-.09-.14-.18-.14h-8.31c-.12,0-.18.06-.18.18l-1.77,14.25c-.06.3-.23.45-.5.45h-1.45c-.3,0-.42-.15-.36-.45l3.77-30.87c.06-.3.23-.45.5-.45h11.12c2.21,0,3.97.65,5.29,1.95,1.32,1.3,1.97,3.04,1.97,5.22,0,2.48-.69,4.58-2.07,6.31-1.38,1.73-3.17,2.8-5.38,3.22-.15.06-.2.14-.14.23l4.95,14.3.04.18c0,.24-.14.36-.41.36h-1.45c-.24,0-.41-.11-.5-.32Zm-11.8-29.14l-1.54,12.39c0,.12.06.18.18.18h8.81c1.3,0,2.48-.31,3.54-.93,1.06-.62,1.89-1.49,2.5-2.61.61-1.12.91-2.39.91-3.81,0-1.63-.48-2.94-1.45-3.93s-2.29-1.48-3.95-1.48h-8.81c-.12,0-.18.06-.18.18Z"/>
      </g>
    </g>
  </g>
</svg>