<?xml version="1.0" encoding="UTF-8"?>
<svg id="Layer_2" data-name="Layer 2" xmlns="http://www.w3.org/2000/svg" viewBox="0 0 266.35 81">
  <defs>
    <style>
      .cls-1 {
        fill: #606060;
      }

      .cls-1, .cls-2 {
        stroke-width: 0px;
      }
    </style>
  </defs>
  <g id="Layer_1-2" data-name="Layer 1">
    <g>
      <rect class="cls-2" width="266.35" height="81"/>
      <g>
        <path class="cls-1" d="m51.83,26.14c-.09.09-.2.14-.32.14h-16.66c-.12,0-.18.06-.18.18l-1.54,12.26c0,.12.06.18.18.18h11.8c.3,0,.42.15.36.45l-.14,1.23c-.06.3-.23.45-.5.45h-11.8c-.12,0-.18.06-.18.18l-1.77,14.25c-.06.3-.23.45-.5.45h-1.45c-.3,0-.42-.15-.36-.45l3.77-30.87c.06-.3.23-.45.5-.45h18.7c.15,0,.26.05.34.14.08.09.1.2.07.32l-.14,1.23c-.03.12-.09.23-.18.32Z"/>
        <path class="cls-1" d="m71.58,55.6l-4.95-14.44c-.03-.09-.09-.14-.18-.14h-8.31c-.12,0-.18.06-.18.18l-1.77,14.25c-.06.3-.23.45-.5.45h-1.45c-.3,0-.42-.15-.36-.45l3.77-30.87c.06-.3.23-.45.5-.45h11.12c2.21,0,3.97.65,5.29,1.95,1.32,1.3,1.97,3.04,1.97,5.22,0,2.48-.69,4.58-2.07,6.31-1.38,1.73-3.17,2.8-5.38,3.22-.15.06-.2.14-.14.23l4.95,14.3.04.18c0,.24-.14.36-.41.36h-1.45c-.24,0-.41-.11-.5-.32Zm-11.8-29.14l-1.54,12.39c0,.12.06.18.18.18h8.81c1.3,0,2.48-.31,3.54-.93,1.06-.62,1.89-1.49,2.5-2.61.61-1.12.91-2.39.91-3.81,0-1.63-.48-2.94-1.45-3.93s-2.29-1.48-3.95-1.48h-8.81c-.12,0-.18.06-.18.18Z"/>
        <path class="cls-1" d="m83.24,53.92c-1.6-1.57-2.41-3.68-2.41-6.31,0-.73.03-1.27.09-1.63l1.45-11.89c.24-2.03.88-3.82,1.93-5.38,1.04-1.56,2.38-2.77,4.02-3.63,1.63-.86,3.46-1.29,5.49-1.29,2.81,0,5.03.79,6.65,2.36,1.62,1.57,2.43,3.68,2.43,6.31,0,.73-.03,1.27-.09,1.63l-1.45,11.89c-.24,2.03-.89,3.82-1.93,5.38s-2.4,2.77-4.06,3.63c-1.67.86-3.51,1.29-5.54,1.29-2.78,0-4.98-.79-6.58-2.36Zm12.87-1.95c1.62-1.48,2.59-3.45,2.93-5.9l1.45-12.03c.06-.6.09-1.03.09-1.27,0-2.09-.63-3.75-1.88-4.99-1.26-1.24-2.97-1.86-5.15-1.86-2.33,0-4.31.75-5.92,2.25-1.62,1.5-2.58,3.46-2.88,5.88l-1.5,12.03c-.06.61-.09,1.03-.09,1.27,0,2.09.62,3.75,1.86,4.99,1.24,1.24,2.93,1.86,5.08,1.86,2.39,0,4.4-.74,6.01-2.22Z"/>
        <path class="cls-1" d="m130.68,24.28c.09-.09.21-.14.36-.14h1.45c.12,0,.22.05.29.14.08.09.1.2.07.32l-3.77,30.87c-.03.12-.09.23-.18.32s-.2.14-.32.14h-1.45c-.21,0-.38-.11-.5-.32l-12.66-26.65c-.03-.09-.08-.13-.14-.11-.06.02-.09.07-.09.16l-3.27,26.46c-.06.3-.23.45-.5.45h-1.45c-.3,0-.42-.15-.36-.45l3.77-30.87c.06-.3.23-.45.5-.45h1.5c.24,0,.41.11.5.32l12.62,26.65c.03.09.08.13.14.11.06-.01.09-.07.09-.16l3.27-26.46c0-.12.04-.23.14-.32Z"/>
        <path class="cls-1" d="m160.12,24.28c.08.09.1.2.07.32l-.18,1.23c0,.12-.04.23-.14.32s-.2.14-.32.14h-8.81c-.06,0-.11.02-.16.05-.05.03-.07.08-.07.14l-3.54,29.01c-.06.3-.23.45-.5.45h-1.45c-.27,0-.41-.15-.41-.45l3.59-29.01c0-.12-.06-.18-.18-.18h-8.35c-.3,0-.42-.15-.36-.45l.14-1.23c.06-.3.23-.45.5-.45h19.84c.15,0,.26.05.34.14Z"/>
      </g>
      <g>
        <path class="cls-1" d="m180.06,48.3c.25-.26.54-.54.84-.84.31-.31.59-.61.84-.92.36-.31.69-.64,1-1,.05,0,.2.08.46.23s.5.36.73.61c.23.26.38.55.46.88.08.33-.01.68-.27,1.04-.61.87-1.42,1.76-2.42,2.68-1,.92-2.08,1.76-3.26,2.53-1.18.77-2.39,1.39-3.64,1.88-1.25.49-2.47.73-3.64.73s-2.25-.25-3.07-.77c-.82-.51-1.44-1.19-1.88-2.03-.43-.84-.69-1.78-.77-2.8-.08-1.02.01-2.02.27-2.99.26-1.07.74-2.3,1.46-3.68.72-1.38,1.56-2.66,2.53-3.83.97-1.18,2.06-2.17,3.26-2.99,1.2-.82,2.44-1.23,3.72-1.23.61,0,1.19.15,1.73.46.54.31.96.74,1.26,1.3.31.56.45,1.25.42,2.07-.03.82-.27,1.74-.73,2.76-.66,1.48-1.71,2.75-3.14,3.8-1.43,1.05-3.02,1.57-4.75,1.57-.87,0-1.66-.13-2.38-.38-.15.72-.27,1.47-.34,2.26-.08.79.04,1.5.34,2.11.25.46.51.75.77.88.26.13.72.19,1.38.19,1.89,0,3.48-.43,4.75-1.3,1.28-.87,2.63-1.94,4.06-3.22Zm-3.22-9.2c-.77,0-1.53.28-2.3.84-.77.56-1.45,1.18-2.03,1.84-.59.67-1.06,1.28-1.42,1.84-.36.56-.49.87-.38.92.1.05.31.08.61.08.46,0,.98-.1,1.57-.31.59-.2,1.16-.54,1.72-1,.56-.46,1.05-1.04,1.46-1.73.41-.69.66-1.52.77-2.49Z"/>
        <path class="cls-1" d="m201.37,43.78c-.56,1.48-.96,2.66-1.19,3.53-.23.87-.35,1.53-.35,1.99s.1.75.31.88c.2.13.46.19.77.19h.38c1.12-.1,2.22-.61,3.3-1.53,1.07-.92,2.12-1.76,3.14-2.53.15-.1.28-.2.38-.31.1-.1.2-.18.31-.23.05-.1.13-.18.23-.23.25.1.59.32,1,.65.41.33.64.78.69,1.34,0,.41-.21.82-.61,1.23-.41.41-.79.77-1.15,1.07-3.02,2.56-5.52,3.83-7.51,3.83-.36,0-.64-.03-.84-.08-2.66-.41-3.86-2.1-3.6-5.06.1-.77.34-1.75.73-2.95.38-1.2.78-2.35,1.19-3.45.41-1.1.75-2.03,1.04-2.8.28-.77.34-1.15.19-1.15-.1,0-.36.12-.77.35-.41.23-.79.47-1.15.73-1.18.87-2.47,2.24-3.87,4.1-1.41,1.87-2.83,3.73-4.26,5.6-1.43,1.87-2.83,3.5-4.18,4.91-1.36,1.41-2.57,2.11-3.64,2.11-.51,0-.97-.2-1.38-.61-.46-.46-.7-1.02-.73-1.69-.03-.66.17-1.61.58-2.84.26-.72.7-1.79,1.34-3.22.64-1.43,1.37-2.86,2.19-4.29.82-1.43,1.69-2.7,2.61-3.8.92-1.1,1.79-1.67,2.61-1.73.41,0,.77.12,1.07.35s.5.5.58.81c.08.31.05.64-.08,1-.13.36-.4.67-.81.92-.61.36-1.28,1.09-1.99,2.19-.72,1.1-1.38,2.24-1.99,3.41-.61,1.18-1.12,2.22-1.53,3.14-.41.92-.59,1.38-.54,1.38s.23-.19.54-.58c.31-.38.7-.87,1.19-1.46.49-.59,1.01-1.24,1.57-1.96.56-.71,1.12-1.43,1.69-2.15,1.02-1.38,1.87-2.49,2.53-3.34.66-.84,1.25-1.56,1.76-2.15.51-.59.97-1.07,1.38-1.46.41-.38.87-.78,1.38-1.19,1.64-1.23,3.04-1.84,4.22-1.84.92,0,1.64.31,2.15.92.41.46.65,1.02.73,1.69.08.67.04,1.37-.12,2.11-.15.74-.37,1.47-.65,2.19-.28.72-.55,1.38-.8,1.99Z"/>
        <path class="cls-1" d="m223.69,37.11c.2.36.36.49.46.38.31-.36.77-1.15,1.38-2.38s1.3-2.63,2.07-4.22c.77-1.58,1.58-3.27,2.45-5.06.87-1.79,1.73-3.42,2.57-4.91.84-1.48,1.63-2.71,2.38-3.68.74-.97,1.39-1.48,1.96-1.53.36-.05.71.05,1.07.31.36.26.59.56.69.92.05.51-.23,1.15-.84,1.92-.67.72-1.38,1.78-2.15,3.18-.77,1.41-1.6,2.99-2.49,4.75-.9,1.76-1.82,3.63-2.76,5.6-.95,1.97-1.93,3.87-2.95,5.71-.56,1.02-1.04,1.97-1.42,2.84-.38.87-.83,1.81-1.34,2.84-.72,1.48-1.23,2.74-1.53,3.76-.31,1.02-.41,1.97-.31,2.84.05,1.28.41,1.92,1.07,1.92.46,0,1.01-.27,1.65-.8.64-.54,1.28-1.16,1.92-1.88.64-.71,1.24-1.46,1.8-2.22.56-.77,1.02-1.38,1.38-1.84.05,0,.23.05.54.15.31.1.61.26.92.46.31.21.52.49.65.84.13.36.06.77-.19,1.23-.46.77-1.04,1.58-1.73,2.45-.69.87-1.43,1.67-2.22,2.42-.79.74-1.62,1.34-2.49,1.8s-1.74.69-2.61.69c-.36,0-.64-.03-.84-.08.1,0,.01-.04-.27-.12-.28-.08-.63-.28-1.04-.61-.41-.33-.8-.83-1.19-1.5-.38-.66-.63-1.58-.73-2.76-1.18,1.28-2.38,2.49-3.6,3.64s-2.48,1.73-3.76,1.73c-.97,0-1.87-.38-2.68-1.15-1.18-1.07-1.8-2.42-1.88-4.03-.08-1.61.23-3.27.92-4.98.69-1.71,1.69-3.36,2.99-4.95,1.3-1.58,2.8-2.86,4.49-3.83,1.38-.82,2.84-1.23,4.37-1.23,1.43,0,2.53.46,3.3,1.38Zm-2.45,2.22c-.26-.26-.59-.38-1-.38-.67,0-1.56.33-2.68,1-1.69.97-3.04,2.17-4.06,3.6-1.02,1.43-1.74,2.81-2.15,4.14-.41,1.33-.54,2.47-.38,3.41.15.95.56,1.42,1.23,1.42.31,0,.64-.1,1-.31.25,0,.83-.46,1.72-1.38.89-.92,1.83-1.99,2.8-3.22.97-1.23,1.85-2.48,2.65-3.76.79-1.28,1.24-2.27,1.34-2.99.05-.66-.1-1.18-.46-1.53Z"/>
      </g>
    </g>
  </g>
</svg>