<?xml version="1.0" encoding="UTF-8"?>
<svg id="Layer_2" data-name="Layer 2" xmlns="http://www.w3.org/2000/svg" viewBox="0 0 81 81">
  <defs>
    <style>
      .cls-1 {
        fill: #606060;
      }

      .cls-1, .cls-2 {
        stroke-width: 0px;
      }

      .cls-2 {
        fill: #1c1c1c;
      }
    </style>
  </defs>
  <g id="Layer_1-2" data-name="Layer 1">
    <g>
      <rect class="cls-2" width="81" height="81"/>
      <g>
        <path class="cls-1" d="m30.69,60.69c-2.99,0-5.42-2.43-5.42-5.42s2.43-5.42,5.42-5.42,5.42,2.43,5.42,5.42-2.43,5.42-5.42,5.42Zm0-8.83c-1.88,0-3.42,1.53-3.42,3.42s1.53,3.42,3.42,3.42,3.42-1.53,3.42-3.42-1.53-3.42-3.42-3.42Z"/>
        <path class="cls-1" d="m30.69,34.19c-2.99,0-5.42-2.43-5.42-5.42s2.43-5.42,5.42-5.42,5.42,2.43,5.42,5.42-2.43,5.42-5.42,5.42Zm0-8.83c-1.88,0-3.42,1.53-3.42,3.42s1.53,3.42,3.42,3.42,3.42-1.53,3.42-3.42-1.53-3.42-3.42-3.42Z"/>
        <path class="cls-1" d="m52.77,34.19c-2.99,0-5.42-2.43-5.42-5.42s2.43-5.42,5.42-5.42,5.42,2.43,5.42,5.42-2.43,5.42-5.42,5.42Zm0-8.83c-1.88,0-3.42,1.53-3.42,3.42s1.53,3.42,3.42,3.42,3.42-1.53,3.42-3.42-1.53-3.42-3.42-3.42Z"/>
        <path class="cls-1" d="m30.69,51.85c-.55,0-1-.45-1-1v-17.67c0-.55.45-1,1-1s1,.45,1,1v17.67c0,.55-.45,1-1,1Z"/>
        <path class="cls-1" d="m48.36,56.27h-13.25c-.55,0-1-.45-1-1s.45-1,1-1h13.25c1.88,0,3.42-1.53,3.42-3.42v-11.04c0-.55.45-1,1-1s1,.45,1,1v11.04c0,2.99-2.43,5.42-5.42,5.42Z"/>
        <path class="cls-1" d="m59.4,47.44c-.26,0-.51-.1-.71-.29l-5.92-5.92-5.92,5.92c-.39.39-1.02.39-1.41,0s-.39-1.02,0-1.41l6.63-6.63c.39-.39,1.02-.39,1.41,0l6.63,6.63c.39.39.39,1.02,0,1.41-.2.2-.45.29-.71.29Z"/>
      </g>
    </g>
  </g>
</svg>