<?xml version="1.0" encoding="UTF-8"?>
<svg id="Layer_2" data-name="Layer 2" xmlns="http://www.w3.org/2000/svg" viewBox="0 0 81 81">
  <defs>
    <style>
      .cls-1 {
        fill: #606060;
      }

      .cls-1, .cls-2 {
        stroke-width: 0px;
      }

      .cls-2 {
        fill: #1c1c1c;
      }
    </style>
  </defs>
  <g id="Layer_1-2" data-name="Layer 1">
    <g>
      <rect class="cls-2" width="81" height="81"/>
      <path class="cls-1" d="m23.48,30.92l-.97-.97c-.68-.87-1.07-2.04-1.16-3.11-.1-3.01,2.53-5.45,5.54-5.45h8.07c-.49.87-.68,1.84-.68,2.82h0c0,.39,0,2.24,1.84,4.18l21.69,21.78c.19.19.29.39.49.58l.1.1v.1l.1.1c.16.17.29.37.39.58h0c.49.78.68,1.75.68,2.63,0,.97-.29,1.84-.68,2.63s-1.16,1.46-1.94,1.95-1.75.68-2.63.68h-8.08c.49-.87.68-1.84.68-2.82v-.1c0-1.36-.58-2.72-1.46-3.79h0l-21.98-21.88Zm30.83,31.7c4.58.03,8.33-3.66,8.36-8.24,0-.04,0-.08,0-.12v-.29h0v-.39h0c-.09-.91-.32-1.79-.68-2.63l-.1-.1v-.19l-.1-.1c-.2-.51-.5-.97-.87-1.36v-.1c-.2-.28-.43-.54-.68-.78l-22.37-22.47c-.31-.43-.51-.93-.58-1.46,0-.49.1-1.07.29-1.46.19-.49.58-.87,1.07-1.16.44-.26.94-.4,1.46-.39h16.15l-6.32,6.02c-.58.58-.97,1.36-.97,2.13s.29,1.65.87,2.24h0l14.2-13.42H26.69c-1.55,0-3.21.49-4.57,1.26-1.36.87-2.43,2.04-3.11,3.5-.7,1.45-.96,3.07-.78,4.67.2,1.57.84,3.05,1.84,4.28l1.16,1.16h0l19.16,19.07,2.63,2.63c.36.45.6.98.68,1.55,0,.58-.1,1.16-.39,1.65-.29.39-.58.78-1.07,1.07-.44.26-.94.4-1.46.39h-16.15l6.13-5.83c.28-.28.51-.61.68-.97.19-.36.29-.76.29-1.16,0-.39-.1-.78-.19-1.16-.17-.36-.4-.69-.68-.97h0l-13.91,13.03h37.34v.1Z"/>
    </g>
  </g>
</svg>