<?xml version="1.0" encoding="UTF-8"?>
<svg id="Layer_2" data-name="Layer 2" xmlns="http://www.w3.org/2000/svg" viewBox="0 0 81 81">
  <defs>
    <style>
      .cls-1 {
        fill: #606060;
      }

      .cls-1, .cls-2 {
        stroke-width: 0px;
      }

      .cls-2 {
        fill: #1c1c1c;
      }
    </style>
  </defs>
  <g id="Layer_1-2" data-name="Layer 1">
    <g>
      <rect class="cls-2" width="81" height="81"/>
      <g>
        <path class="cls-1" d="m27.26,54.64h-4.41c-1.71,0-3.11-1.4-3.11-3.11v-4.41c0-1.71,1.4-3.11,3.11-3.11h4.41c1.71,0,3.11,1.4,3.11,3.11v4.41c0,1.71-1.4,3.11-3.11,3.11Zm-4.41-8.83c-.72,0-1.3.58-1.3,1.3v4.41c0,.72.58,1.3,1.3,1.3h4.41c.72,0,1.3-.58,1.3-1.3v-4.41c0-.72-.58-1.3-1.3-1.3h-4.41Z"/>
        <path class="cls-1" d="m58.16,54.64h-4.41c-1.72,0-3.11-1.4-3.11-3.11v-4.41c0-1.71,1.4-3.11,3.11-3.11h4.41c1.72,0,3.11,1.4,3.11,3.11v4.41c0,1.71-1.4,3.11-3.11,3.11Zm-4.41-8.83c-.72,0-1.3.58-1.3,1.3v4.41c0,.72.59,1.3,1.3,1.3h4.41c.72,0,1.3-.58,1.3-1.3v-4.41c0-.72-.59-1.3-1.3-1.3h-4.41Z"/>
        <path class="cls-1" d="m42.71,36.99h-4.41c-1.71,0-3.11-1.4-3.11-3.11v-4.41c0-1.72,1.4-3.11,3.11-3.11h4.41c1.71,0,3.11,1.4,3.11,3.11v4.41c0,1.72-1.4,3.11-3.11,3.11Zm-4.41-8.83c-.72,0-1.3.59-1.3,1.3v4.41c0,.72.58,1.3,1.3,1.3h4.41c.72,0,1.3-.59,1.3-1.3v-4.41c0-.72-.58-1.3-1.3-1.3h-4.41Z"/>
        <path class="cls-1" d="m25.05,45.82s-.04,0-.06,0c-.5-.04-.87-.47-.84-.96.46-6.55,5.31-11.89,11.79-12.97.49-.08.96.25,1.04.74.08.49-.25.96-.74,1.04-5.65.94-9.88,5.59-10.28,11.31-.03.48-.43.84-.9.84Z"/>
        <path class="cls-1" d="m55.95,45.82c-.47,0-.87-.36-.9-.84-.4-5.72-4.63-10.37-10.28-11.31-.49-.08-.82-.55-.74-1.04.08-.49.54-.83,1.04-.74,6.48,1.08,11.33,6.41,11.79,12.97.04.5-.34.93-.84.96-.02,0-.04,0-.06,0Z"/>
        <path class="cls-1" d="m36.09,32.58h-13.24c-.5,0-.9-.4-.9-.9s.4-.9.9-.9h13.24c.5,0,.9.4.9.9s-.4.9-.9.9Z"/>
        <path class="cls-1" d="m58.16,32.58h-13.24c-.5,0-.9-.4-.9-.9s.4-.9.9-.9h13.24c.5,0,.9.4.9.9s-.4.9-.9.9Z"/>
        <path class="cls-1" d="m20.64,34.78c-1.72,0-3.11-1.4-3.11-3.11s1.4-3.11,3.11-3.11,3.11,1.4,3.11,3.11-1.4,3.11-3.11,3.11Zm0-4.41c-.72,0-1.3.58-1.3,1.3s.59,1.3,1.3,1.3,1.3-.58,1.3-1.3-.58-1.3-1.3-1.3Z"/>
        <path class="cls-1" d="m60.36,34.78c-1.72,0-3.11-1.4-3.11-3.11s1.4-3.11,3.11-3.11,3.11,1.4,3.11,3.11-1.4,3.11-3.11,3.11Zm0-4.41c-.72,0-1.3.58-1.3,1.3s.59,1.3,1.3,1.3,1.3-.58,1.3-1.3-.58-1.3-1.3-1.3Z"/>
      </g>
    </g>
  </g>
</svg>