<?xml version="1.0" encoding="utf-8"?>
<!-- Generator: Adobe Illustrator 28.2.0, SVG Export Plug-In . SVG Version: 6.00 Build 0)  -->
<svg version="1.1" id="Layer_2_00000111900813331559577050000004450995185662366877_"
	 xmlns="http://www.w3.org/2000/svg" xmlns:xlink="http://www.w3.org/1999/xlink" x="0px" y="0px" viewBox="0 0 812.6 812.6"
	 style="enable-background:new 0 0 812.6 812.6;" xml:space="preserve">
<style type="text/css">
	.st0{fill:url(#SVGID_1_);}
</style>
<g id="Layer_1-2">
	<linearGradient id="SVGID_1_" gradientUnits="userSpaceOnUse" x1="406.25" y1="812.6" x2="406.25" y2="-9.094947e-13">
		<stop  offset="0.1257" style="stop-color:#7C89A3"/>
		<stop  offset="1" style="stop-color:#000054"/>
	</linearGradient>
	<path class="st0" d="M406,751.6c56.4,0,104.4-19.7,144-59.2s59.4-87.4,59.4-143.7s-19.7-104.4-59.2-144s-87.4-59.4-143.7-59.4
		s-104.4,19.7-144,59.2s-59.4,87.4-59.4,143.7s19.7,104.3,59.2,144C301.8,731.8,349.7,751.6,406,751.6z M270.2,322
		c19-11.5,39.3-20.5,60.9-26.9c21.7-6.4,44.4-10,68.1-10.7L287.4,60.9H139.1L270.2,322L270.2,322z M542.4,322l131-261H525.1
		L413.4,284.4c23.7,0.7,46.4,4.2,68.1,10.7S523.4,310.4,542.4,322L542.4,322z M196,707.9c-16.9-22.3-30.1-46.9-39.6-73.6
		s-14.2-55.4-14.2-85.8s4.7-59.1,14.2-85.8s22.7-51.3,39.6-73.6c-38.6,6.8-70.8,24.9-96.5,54.3s-38.6,64.5-38.6,105.1
		s12.9,75.7,38.6,105.1C125.3,683,157.4,701.1,196,707.9L196,707.9z M616.5,707.9c38.6-6.8,70.8-24.9,96.5-54.3
		s38.6-64.5,38.6-105.1s-12.9-75.7-38.6-105.1c-25.7-29.5-57.9-47.6-96.5-54.3c16.9,22.4,30.1,46.9,39.6,73.6s14.2,55.4,14.2,85.8
		s-4.7,59.1-14.2,85.8S633.5,685.6,616.5,707.9L616.5,707.9z M406.3,812.6c-27.1,0-53-3.9-77.7-11.7s-47.6-18.5-68.6-32
		c-6.1,1.3-12.2,2.2-18.3,2.5s-12.5,0.5-19.3,0.5c-61.6,0-114.1-21.7-157.4-65S0,611.1,0,549.5s19.6-109.4,58.9-151.3
		s87.7-65.3,145.2-70.1L40.6,0H325l81.3,162.5L487.5,0h284.4L609.4,326c57.6,5.4,105.8,29.1,144.7,71.1s58.4,92.4,58.4,151.3
		c0,62.3-21.7,115.1-65,158.5c-43.3,43.3-96.2,65-158.5,65c-6.1,0-12.4-0.2-18.8-0.5s-12.7-1.2-18.8-2.5c-21,13.5-43.7,24.2-68,32
		C459.1,808.7,433.4,812.5,406.3,812.6L406.3,812.6z M270.2,322l-131-261L270.2,322L270.2,322z M542.4,322l131-261L542.4,322
		L542.4,322z M406.3,650l-31.5-70l-70.1-31.5l70.1-31.5l31.5-70.1l31.5,70.1l70.1,31.5L437.8,580L406.3,650L406.3,650z"/>
</g>
</svg>
