<?xml version="1.0" encoding="UTF-8"?>
<svg xmlns="http://www.w3.org/2000/svg" xmlns:xlink="http://www.w3.org/1999/xlink" viewBox="0 0 1798.29 1690.54">
  <defs>
    <style>
      .cls-1 {
        isolation: isolate;
      }

      .cls-2 {
        fill: url(#linear-gradient);
        mix-blend-mode: multiply;
        opacity: .24;
        stroke-width: 0px;
      }
    </style>
    <linearGradient id="linear-gradient" x1="917.87" y1="-175.2" x2="896.48" y2="988.2" gradientUnits="userSpaceOnUse">
      <stop offset=".02" stop-color="#000" stop-opacity=".7"/>
      <stop offset="1" stop-color="#929292" stop-opacity="0"/>
    </linearGradient>
  </defs>
  <g class="cls-1">
    <g id="Layer_2" data-name="Layer 2">
      <g id="Layer_1-2" data-name="Layer 1">
        <path class="cls-2" d="M248.94,479.3l-37.15-37.15c-26.01-33.44-40.87-78.03-44.59-118.9-3.72-115.18,96.6-208.07,211.78-208.07h308.38c-18.58,33.44-26.01,70.59-26.01,107.75h0c0,14.86,0,85.46,70.59,159.77l828.55,832.27c7.43,7.43,11.15,14.86,18.58,22.29l3.72,3.72v3.72l3.72,3.72c7.43,7.43,11.15,14.86,14.86,22.29h0c18.58,29.72,26.01,66.88,26.01,100.32,0,37.15-11.15,70.59-26.01,100.32-14.86,29.72-44.59,55.73-74.31,74.31-29.72,18.58-66.88,26.01-100.32,26.01h-308.38c18.58-33.44,26.01-70.59,26.01-107.75v-3.72c0-52.02-22.29-104.03-55.73-144.9h0L248.94,479.3ZM1426.74,1690.54c85.46,0,167.2-33.44,226.64-92.89,59.45-59.45,92.89-141.19,92.89-226.64v-11.15h0v-14.86h0c-3.72-33.44-11.15-66.88-26.01-100.32l-3.72-3.72v-7.43l-3.72-3.72c-7.43-18.58-18.58-37.15-33.44-52.02v-3.72c-7.43-11.15-14.86-18.58-26.01-29.72L798.83,286.09c-11.15-14.86-18.58-33.44-22.29-55.73,0-18.58,3.72-40.87,11.15-55.73,7.43-18.58,22.29-33.44,40.87-44.59,18.58-11.15,37.15-14.86,55.73-14.86h616.77l-241.51,230.36c-22.29,22.29-37.15,52.02-37.15,81.74s11.15,63.16,33.44,85.46h0L1798.29,0H371.55c-59.45,0-122.61,18.58-174.63,48.3-52.02,33.44-92.89,78.03-118.9,133.76-26.01,55.73-37.15,115.18-29.72,178.34,7.43,59.45,33.44,118.9,70.59,163.48,14.86,14.86,29.72,29.72,44.59,44.59h0l731.95,728.23,100.32,100.32c14.86,18.58,22.29,37.15,26.01,59.45,0,22.29-3.72,44.59-14.86,63.16-11.15,14.86-22.29,29.72-40.87,40.87-18.58,11.15-37.15,14.86-55.73,14.86H293.52l234.08-222.93c11.15-11.15,18.58-22.29,26.01-37.15,7.43-14.86,11.15-29.72,11.15-44.59s-3.72-29.72-7.43-44.59c-7.43-14.86-14.86-26.01-26.01-37.15h0L0,1686.83h1426.74v3.72Z"/>
      </g>
    </g>
  </g>
</svg>