<svg xmlns="http://www.w3.org/2000/svg" version="1.1" xmlns:xlink="http://www.w3.org/1999/xlink" xmlns:svgjs="http://svgjs.dev/svgjs" width="1440" height="560" preserveAspectRatio="none" viewBox="0 0 1440 560">
  <g mask="url(&quot;#SvgjsMask1047&quot;)" fill="none">
      <path d="M23.55561380398253 485.8803268601275L92.65795111352745 383.4318987319945-9.790477014605578 314.3295614224496-78.89281432415049 416.7779895505826z" fill="rgba(70, 80, 115, 0.74)" class="triangle-float1"></path>
      <path d="M1145.22 117.27 a161.93 161.93 0 1 0 323.86 0 a161.93 161.93 0 1 0 -323.86 0z" fill="rgba(70, 80, 115, 0.74)" class="triangle-float1"></path>
      <path d="M982.5617934564788 404.9042442736981L1051.722363533016 507.65008844750355 1100.8750779163563 411.182454824666z" fill="rgba(70, 80, 115, 0.74)" class="triangle-float1"></path>
      <path d="M1347.5581142616848 384.0033949432974L1215.0055783314356 307.30562600730366 1212.6692088318669 441.15614499286875z" fill="rgba(70, 80, 115, 0.74)" class="triangle-float1"></path>
      <path d="M123.79309560895943 135.22499620902477L81.87308758407677 217.4976443495197 226.2420638072605 239.24133231659624z" fill="rgba(70, 80, 115, 0.74)" class="triangle-float2"></path>
      <path d="M-57.86104926826297 165.27953767516794L33.16314517508666 205.8061200984491 73.68972759836782 114.78192565509949-17.334466844981804 74.25534323181832z" fill="rgba(70, 80, 115, 0.74)" class="triangle-float3"></path>
      <path d="M1122.15749591642 253.69334318574562L1217.7051027700252 390.4266280404527 1281.6273080985068 259.3666848932466z" fill="rgba(70, 80, 115, 0.74)" class="triangle-float1"></path>
      <path d="M1012.1416067666213 217.46141499982286L987.5351590993615 131.6485339934058 871.1190614233658 211.46464599750402z" fill="rgba(70, 80, 115, 0.74)" class="triangle-float2"></path>
      <path d="M117.44917710558775 523.1518788055814L71.14231041624043 395.9248082109043-56.08476017843668 442.2316749002516-9.777893489089351 569.4587454949287z" fill="rgba(70, 80, 115, 0.74)" class="triangle-float1"></path>
      <path d="M1246.7901437468952 426.3974002732432L1296.8106910328252 343.14922972932607 1163.5419732029782 376.37685298731327z" fill="rgba(70, 80, 115, 0.74)" class="triangle-float1"></path>
      <path d="M510.606,367.908C530.598,368.363,549.594,358.754,560.076,341.724C571.089,323.832,572.591,301.614,562.88,282.983C552.383,262.843,533.285,245.605,510.606,246.812C489.227,247.949,476.618,268.872,467.153,288.075C459.014,304.588,456.092,323.386,464.893,339.556C474.081,356.436,491.393,367.47,510.606,367.908" fill="rgba(70, 80, 115, 0.74)" class="triangle-float3"></path>
      <path d="M796.27 493.02 a128.83 128.83 0 1 0 257.66 0 a128.83 128.83 0 1 0 -257.66 0z" fill="rgba(70, 80, 115, 0.74)" class="triangle-float2"></path>
      <path d="M979.4 445.56 a133.92 133.92 0 1 0 267.84 0 a133.92 133.92 0 1 0 -267.84 0z" fill="rgba(70, 80, 115, 0.74)" class="triangle-float3"></path>
      <path d="M1194.844,333.559C1221.061,335.136,1243.793,316.375,1256.366,293.316C1268.395,271.253,1269.116,243.867,1255.131,222.989C1242.403,203.988,1217.688,200.379,1194.844,201.471C1174.255,202.455,1154.196,210.529,1143.772,228.311C1133.236,246.284,1135.837,267.869,1144.932,286.613C1155.619,308.637,1170.408,332.089,1194.844,333.559" fill="rgba(70, 80, 115, 0.74)" class="triangle-float2"></path>
      <path d="M152.71 404.9 a116.94 116.94 0 1 0 233.88 0 a116.94 116.94 0 1 0 -233.88 0z" fill="rgba(70, 80, 115, 0.74)" class="triangle-float2"></path>
  </g>
  <defs>
      <mask id="SvgjsMask1047">
          <rect width="1440" height="560" fill="#ffffff"></rect>
      </mask>
      <style>
          @keyframes float1 {
                  0%{transform: translate(0, 0)}
                  50%{transform: translate(-10px, 0)}
                  100%{transform: translate(0, 0)}
              }

              .triangle-float1 {
                  animation: float1 5s infinite;
              }

              @keyframes float2 {
                  0%{transform: translate(0, 0)}
                  50%{transform: translate(-5px, -5px)}
                  100%{transform: translate(0, 0)}
              }

              .triangle-float2 {
                  animation: float2 4s infinite;
              }

              @keyframes float3 {
                  0%{transform: translate(0, 0)}
                  50%{transform: translate(0, -10px)}
                  100%{transform: translate(0, 0)}
              }

              .triangle-float3 {
                  animation: float3 6s infinite;
              }
      </style>
  </defs>
</svg>