<svg version="1.1" id="Layer_1" xmlns="http://www.w3.org/2000/svg">
<style type="text/css">
	.st0{fill:#FFFFFF;}
	.st1{fill:#334155;}
</style>
<path class="st0" d="M4.2,8.5L3.7,8C3.3,7.5,3.1,6.8,3,6.2C3,5.8,3.1,5.4,3.2,5c0.2-0.4,0.4-0.7,0.7-1s0.6-0.5,1-0.7
	C5.4,3.1,5.8,3,6.2,3h4.6c-0.3,0.5-0.4,1.1-0.4,1.6c0,0.2,0,1.3,1.1,2.4L24,19.6c0.1,0.1,0.2,0.2,0.3,0.3l0,0l0,0l0,0
	c0.1,0.1,0.2,0.2,0.2,0.3c0.3,0.5,0.4,1,0.4,1.5s-0.1,1.1-0.4,1.5c-0.3,0.5-0.7,0.8-1.1,1.1c-0.5,0.3-1,0.4-1.5,0.4h-4.6
	c0.3-0.5,0.4-1,0.4-1.6c0,0,0,0,0-0.1c0-0.8-0.3-1.6-0.8-2.2L4.2,8.5z"/>
<path class="st1" d="M4.2,8.5L3.7,7.9C3.3,7.4,3.1,6.8,3,6.2C2.9,4.4,4.5,3,6.2,3h4.6c-0.3,0.5-0.4,1.1-0.4,1.6l0,0
	c0,0.2,0,1.3,1.1,2.4L24,19.5c0.1,0.1,0.2,0.2,0.3,0.3l0.1,0.1V20l0.1,0.1c0.1,0.1,0.2,0.2,0.2,0.3l0,0c0.3,0.4,0.4,1,0.4,1.5
	c0,0.6-0.2,1.1-0.4,1.5s-0.7,0.8-1.1,1.1c-0.4,0.3-1,0.4-1.5,0.4h-4.6c0.3-0.5,0.4-1.1,0.4-1.6v-0.1c0-0.8-0.3-1.6-0.8-2.2l0,0
	L4.2,8.5z M21.9,26.7c2.6,0,4.8-2.1,4.8-4.7c0,0,0,0,0-0.1v-0.2v-0.2c-0.1-0.5-0.2-1-0.4-1.5l-0.1-0.1v-0.1l-0.1-0.1
	c-0.1-0.3-0.3-0.6-0.5-0.8v-0.1c-0.1-0.2-0.2-0.3-0.4-0.4L12.5,5.6c-0.2-0.2-0.3-0.5-0.3-0.8s0.1-0.6,0.2-0.8
	c0.1-0.3,0.3-0.5,0.6-0.7C13.2,3.1,13.5,3,13.8,3H23l-3.6,3.5c-0.3,0.3-0.6,0.8-0.6,1.2s0.2,1,0.6,1.3l8.2-7.7H6.1
	C5.2,1.3,4.2,1.6,3.4,2C2.7,2.5,2.1,3.2,1.7,4C1.3,4.9,1.1,5.8,1.2,6.7s0.5,1.8,1.1,2.5L3,9.9l11,10.9l1.5,1.5
	c0.2,0.3,0.3,0.6,0.4,0.9c0,0.3-0.1,0.7-0.2,0.9c-0.2,0.2-0.3,0.4-0.6,0.6s-0.5,0.2-0.8,0.2H4.9l3.5-3.4c0.5-0.5,0.7-1.3,0.4-1.9
	c0-0.1-0.4-0.6-0.4-0.5l-8,7.5L21.9,26.7L21.9,26.7z"/>
</svg>