<svg xmlns="http://www.w3.org/2000/svg" viewBox="0 0 1619.64 456"><defs><style>.cls-1{fill:#6b7280;}</style></defs><g id="Capa_2" data-name="Capa 2"><g id="Capa_1-2" data-name="Capa 1"><path class="cls-1" d="M67.15,129.28l-10-10c-7-9-11-21-12-32.07-1-31.07,26.06-56.12,57.12-56.12h83.19c-5,9-7,19-7,29.06h0c0,4,0,23.05,19,43.1l223.5,224.49c2,2,3,4,5,6l1,1v1l1,1a20.8,20.8,0,0,1,4,6h0c5,8,7,18,7,27.06,0,10-3,19-7,27.06s-12,15-20,20.05-18,7-27.06,7H301.66c5-9,7-19,7-29.06v-1c0-14-6-28.07-15-39.09h0ZM384.85,456A85.55,85.55,0,0,0,471,369.81v-3h0v-4h0a90.22,90.22,0,0,0-7-27.06l-1-1v-2l-1-1a42.28,42.28,0,0,0-9-14v-1a50.36,50.36,0,0,0-7-8L215.47,77.17a34,34,0,0,1-6-15c0-5,1-11,3-15,2-5,6-9,11-12a28.24,28.24,0,0,1,15-4H404.89L339.75,93.2c-6,6-10,14-10,22s3,17,9,23.05h0L485.07,0H100.22c-16,0-33.07,5-47.1,13-14,9-25.06,21-32.07,36.08a87.55,87.55,0,0,0-8,48.1,87.58,87.58,0,0,0,19,44.1l12,12h0L241.53,349.77l27.06,27.06a33,33,0,0,1,7,16c0,6-1,12-4,17-3,4-6,8-11,11a28.32,28.32,0,0,1-15,4H79.17l63.14-60.13a35.93,35.93,0,0,0,7-10,26.75,26.75,0,0,0,3-12c0-4-1-8-2-12a36.1,36.1,0,0,0-7-10h0L0,455H384.85Z"/><path class="cls-1" d="M612.35,220.48c-27.06,0-49.11-8-71.16-26l19-23.05c19,14,38.09,21,58.13,21,25,0,44.1-12,47.1-30.06,4-26.06-25.05-34.08-44.09-40.09-41.09-12-57.13-33.07-51.12-66.15C578.27,11,617.36,2,648.43,2c26.05,0,46.1,6,66.14,20.05l-18,23.05c-16-10-35.08-15-54.12-16-22,0-37.08,11-40.09,29.07-4,25.05,20,32.07,38.09,38.08,41.09,13,67.15,29.07,59.13,69.15C690.52,201.44,661.45,220.48,612.35,220.48Z"/><polygon class="cls-1" points="741.63 216.48 778.71 5.01 903.99 5.01 898.98 32.07 806.77 32.07 794.75 95.21 877.93 95.21 872.92 122.27 789.74 122.27 778.71 188.41 875.92 188.41 871.92 216.48 741.63 216.48"/><path class="cls-1" d="M1079.37,443l4-20c0-1,0-1,1-2L1209.66,272.6h-95.21c-16,0-35.08-2-53.12-20-7-8-19-28.07-24-40.09-8-17-29.06-69.15-29.06-70.16l-1-2H971.13l-13,76.17H926L963.12,5h71.15c21,0,39.09,7,49.11,19,11,13,15,31.07,11,52.12-5,30.06-21.05,48.1-50.11,57.12l-10,3,39.09,81.18c10,20,29.06,30.06,52.11,30.06h121.27l-4,19c0,1,0,2-1,2L1120.46,418.92h100.22l-4,24.05ZM977.15,113.25h40.09c26,0,42.09-13,46.1-37.08,2-14,0-25.06-7-33.08-6-7-16-11-29.06-11H990.18Z"/><path class="cls-1" d="M1199.64,219.48h-3c-21.05,0-39.09-7-51.11-21s-16-34.08-13-56.13l12-69.15c8-46.1,42.09-73.16,91.2-73.16,24,0,46.1,7,63.14,19l-20,23.05a85.74,85.74,0,0,0-46.1-14h-2c-28.07,0-49.11,18-53.12,47.11l-12,67.14c-2,15,1,27.06,8,36.08,7,8,17,13,30.07,13,15,0,30.06-4,41.09-10l4-2,10-56.12h-40.09l4-23h70.15l-16,89.2v1c-19,18-48.11,29.06-77.17,29.06Z"/><polygon class="cls-1" points="1336.94 216.48 1374.02 5.01 1406.09 5.01 1369.01 216.48 1336.94 216.48"/><path class="cls-1" d="M1512.32,220.48c-22,0-40.08-7-51.11-21-13-15-17-38.09-13-65.14l10-57.13c9-49.11,43.09-76.17,95.2-76.17h3c21,1,39.09,8,49.11,21.05,13,15,17,37.08,12,63.14l-10,57.12C1599.52,192.42,1565.44,220.48,1512.32,220.48ZM1546.4,29.06c-29.06,0-49.11,18-55.12,49.11l-11,58.13c-3,18,0,33.07,8,43.09,7,8,18,13,30.07,13,30.06,0,50.11-18,55.12-50.11l10-59.13h0c3-17,0-32.07-8-42.09C1570.45,33.07,1559.43,29.06,1546.4,29.06Z"/><path class="cls-1" d="M579.27,446c-20,0-36.08-6-47.1-19-12-14-16-35.08-11-60.13l9-52.12c8-44.1,40.08-70.15,87.19-70.15,21,0,38.08,6,48.1,19,11,13,15,34.07,11,58.13l-9,52.11C659.45,420.93,628.38,446,579.27,446Zm-30.06-72.16c-2,15,1,27.06,8,36.08,7,8,17,12,29.07,12,27.06,0,47.1-17,52.11-47.11l10-54.12c3-16,0-30.06-7-39.08-7-8-17-12-29.06-12-28.07,0-46.11,16-51.12,46.1l-12,58.13Z"/><path class="cls-1" d="M813.79,443l-29.07-71.15H750.65l-12,71.15H710.56l34.08-193.42h65.14q30.06,0,45.1,18c10,12,14,29.06,10,48.1-4,27.06-19,44.1-45.1,52.12l-10,3L843.85,444H813.79Zm-58.13-94.2h37.08c25.06,0,40.09-12,43.1-35.08,2-13,0-23.05-6-31.07-6-7-15-10-27.06-10H768.69Z"/><path class="cls-1" d="M954.1,446c-20.05,0-36.08-6-47.11-19-12-14-16-35.08-11-60.13l9-53.12c8-44.1,40.09-70.15,87.19-70.15,21.05,0,38.08,6,48.11,19,11,14,15,34.07,11,58.12l-9,53.12C1035.28,420.93,1003.21,446,954.1,446ZM924,373.82c-2,15,1,27.06,8,36.08,7,8,17,12,29.06,12,27.06,0,47.11-17,52.12-47.11l10-54.12c3-16,0-30.06-7-39.08-7-8-17-12-29.06-12-28.06,0-46.1,16-51.11,46.1l-12,58.13Z"/><path class="cls-1" d="M1331.93,446c-22,0-39.09-7-49.11-19-11-13-15-32.07-11-55.12l10-60.13c7-43.1,38.08-67.15,84.18-67.15,18,0,36.08,6,49.11,15l-16,19c-11-7-24.06-10-37.09-10-27.06,0-47.1,17-51.11,44.1l-10,60.13c-2,15,0,27.06,7,36.08,7,8,18,12,32.08,12h6a81.24,81.24,0,0,0,37.08-12l10,21.05c-18,10-39.08,15-60.13,15Z"/><path class="cls-1" d="M1499.3,446c-20,0-36.08-6-47.11-19-12-14-16-35.08-11-60.13l9-53.12c8-44.1,38.08-69.15,84.18-70.15h3c21,0,38.08,6,48.11,19,11,14,15,34.07,11,58.12l-9,52.12C1579.47,420.93,1548.4,446,1499.3,446Zm31.06-176.39c-28.06,0-46.1,16-51.11,46.1l-10,54.12c-3,17,0,31.07,8,40.09,7,8,17,12,29.06,12,27.06,0,47.1-17,52.12-47.11l9-51.11,1-3c3-16,0-30.07-7-39.09C1553.41,273.6,1543.39,269.59,1530.36,269.59Z"/></g></g></svg>