<svg id="Capa_1" data-name="Capa 1" xmlns="http://www.w3.org/2000/svg" xmlns:xlink="http://www.w3.org/1999/xlink" viewBox="0 0 120 120"><defs><style>.cls-1{fill:#2062af;}.cls-2{fill:#3c9cd7;}.cls-3{fill:#fff;}.cls-4{fill:url(#Degradado_sin_nombre_3);}.cls-5{fill:url(#Degradado_sin_nombre_3-2);}.cls-6{fill:url(#Degradado_sin_nombre_4);}.cls-7{isolation:isolate;opacity:0.05;}.cls-8{fill:url(#Degradado_sin_nombre_4-2);}</style><linearGradient id="Degradado_sin_nombre_3" x1="-436.14" y1="-803.54" x2="-436.14" y2="-807.28" gradientTransform="translate(2073.96 3800.88) scale(4.64)" gradientUnits="userSpaceOnUse"><stop offset="0.39" stop-color="#d1d3d4" stop-opacity="0"/><stop offset="1" stop-color="#d1d3d4"/></linearGradient><linearGradient id="Degradado_sin_nombre_3-2" x1="-431.46" y1="-805.41" x2="-431.46" y2="-809.3" xlink:href="#Degradado_sin_nombre_3"/><linearGradient id="Degradado_sin_nombre_4" x1="-438.39" y1="-801.87" x2="-429.4" y2="-801.87" gradientTransform="translate(2073.96 3800.88) scale(4.64)" gradientUnits="userSpaceOnUse"><stop offset="0" stop-color="#e8e7e5"/><stop offset="1" stop-color="#fff"/></linearGradient><linearGradient id="Degradado_sin_nombre_4-2" x1="-438.8" y1="-808.34" x2="-429.05" y2="-808.34" xlink:href="#Degradado_sin_nombre_4"/></defs><path class="cls-1" d="M89.27,102.58,60,110.46l-29.27-7.88L24,29.41H96Z"/><path class="cls-2" d="M60,35.34v68.84h.07l23.68-6.37,5.47-62.48Z"/><path d="M43.39,18.66V14.3h6.35V9.54H38.62V23H49.74V18.66ZM61.17,14.3h4.45V9.54H54.49V14.3c1.49,1.49,2.27,2.2,4.42,4.36H54.49V23H65.62V18.66L61.17,14.3Zm15.77,0h4.44V9.54H70.26V14.3c1.48,1.49,2.26,2.2,4.41,4.36H70.26V23H81.38V18.66L76.94,14.3Z"/><path class="cls-3" d="M60,53.63,39,62.36l.7,8.63L60,62.33l21.55-9.21.89-8.83L60,53.63Z"/><path class="cls-4" d="M39,62.36l.7,8.63L60,62.33v-8.7Z"/><path class="cls-5" d="M82.41,44.29,60,53.63v8.7l21.55-9.21Z"/><path class="cls-6" d="M39.06,62.36,39.75,71l31.08.1-.7,11.52L59.91,85.49,50.08,83l-.6-7.15H40.35l1.19,13.8L60,95.12l18.36-5.36,2.39-27.4Z"/><path class="cls-7" d="M60,62.36H39l.7,8.63L60,71.06v-8.7Zm0,23.1-.1,0L50.05,83l-.6-7.15H40.32l1.19,13.8L60,95.12Z"/><path class="cls-8" d="M37.14,44.29H82.41l-.89,8.83H38.23l-1.09-8.83Z"/><path class="cls-7" d="M60,44.29H37.14l1.09,8.83H60V44.29Z"/></svg>