<?xml version="1.0" encoding="utf-8"?>
<!-- Generator: Adobe Illustrator 28.1.0, SVG Export Plug-In . SVG Version: 6.00 Build 0)  -->
<svg version="1.1" id="Capa_1" xmlns="http://www.w3.org/2000/svg" xmlns:xlink="http://www.w3.org/1999/xlink" x="0px" y="0px"
	 viewBox="0 0 24 24" style="enable-background:new 0 0 24 24;" xml:space="preserve">
<path d="M3.8,7.3L3.4,6.8C3,6.4,2.8,5.8,2.8,5.3c0-1.4,1.2-2.6,2.7-2.6h3.9C9.1,3.1,9,3.6,9,4l0,0c0,0.2,0,1.1,0.9,2l10.4,10.5
	c0.1,0.1,0.1,0.2,0.2,0.3l0,0v0l0,0c0.1,0.1,0.1,0.2,0.2,0.3l0,0c0.2,0.4,0.3,0.8,0.3,1.3c0,0.5-0.1,0.9-0.3,1.3
	c-0.2,0.4-0.6,0.7-0.9,0.9c-0.4,0.2-0.8,0.3-1.3,0.3h-3.9c0.2-0.4,0.3-0.9,0.3-1.4v0c0-0.7-0.3-1.3-0.7-1.8l0,0L3.8,7.3z M18.6,22.5
	c2.2,0,4-1.8,4-4c0,0,0,0,0-0.1v-0.1v-0.2c0-0.4-0.2-0.9-0.3-1.3l0,0v-0.1l0,0c-0.1-0.2-0.2-0.5-0.4-0.7v0c-0.1-0.1-0.2-0.3-0.3-0.4
	L10.7,4.8c-0.1-0.2-0.2-0.4-0.3-0.7c0-0.2,0-0.5,0.1-0.7c0.1-0.2,0.3-0.4,0.5-0.6c0.2-0.1,0.5-0.2,0.7-0.2h7.8l-3,2.9
	c-0.3,0.3-0.5,0.7-0.5,1s0.1,0.8,0.4,1.1l6.8-6.5h-18c-0.7,0-1.5,0.2-2.2,0.6C2.5,2.3,2,2.8,1.7,3.5C1.3,4.2,1.2,5,1.3,5.8
	c0.1,0.8,0.4,1.5,0.9,2.1l0.6,0.6l9.2,9.2l1.3,1.3c0.2,0.2,0.3,0.5,0.3,0.7c0,0.3,0,0.6-0.2,0.8c-0.1,0.2-0.3,0.4-0.5,0.5
	c-0.2,0.1-0.5,0.2-0.7,0.2H4.4c0,0,2.9-2.8,2.9-2.8c0.4-0.4,0.6-1.1,0.4-1.6c0,0-0.3-0.5-0.3-0.5c0,0-6.7,6.3-6.7,6.3L18.6,22.5
	L18.6,22.5z"/>
</svg>
