<?xml version="1.0" encoding="utf-8"?>
<!-- Generator: Adobe Illustrator 28.1.0, SVG Export Plug-In . SVG Version: 6.00 Build 0)  -->
<svg version="1.1" id="Capa_1" xmlns="http://www.w3.org/2000/svg" xmlns:xlink="http://www.w3.org/1999/xlink" x="0px" y="0px"
	 viewBox="0 0 24 24" enable-background="new 0 0 24 24" xml:space="preserve">
<path d="M22.8,18.2c0-0.4-0.1-0.8-0.3-1.3l0-0.1c0,0,0,0,0-0.1l0,0c0,0,0,0,0-0.1c-0.1-0.2-0.3-0.5-0.4-0.7
	c-0.1-0.2-0.2-0.3-0.3-0.4L10.8,4.8c-0.2-0.2-0.3-0.5-0.3-0.8c0-0.8,0.6-1.4,1.4-1.4c0,0,5.5,0,7.8,0l-3,2.9c-0.6,0.6-0.6,1.5,0,2.1
	c0,0,6.8-6.6,6.8-6.6h-18c-2.2,0-4.1,1.8-4.1,4.1c0,0.2,0,0.4,0,0.6c0.2,0.8,0.5,1.5,1,2.1c0.2,0.2,0.4,0.4,0.7,0.6
	c0.2,0.2,0.3,0.3,0.5,0.5C3.8,9.3,4,9.5,4.2,9.8c0.3,0.3,0.6,0.6,0.8,0.8c0.3,0.3,0.6,0.6,1,1c0.3,0.3,0.7,0.7,1,1
	c0.3,0.3,0.7,0.7,1,1c0.3,0.3,0.7,0.7,1,1c0.3,0.3,0.6,0.6,0.9,0.9c0.3,0.3,0.5,0.5,0.8,0.8c0.2,0.2,0.4,0.4,0.6,0.6
	c0.1,0.1,0.3,0.3,0.4,0.4c0.1,0.1,0.1,0.1,0.2,0.2c0,0,1.3,1.3,1.3,1.3c0.2,0.2,0.3,0.5,0.3,0.9c0,0.2-0.1,0.5-0.2,0.7
	c-0.2,0.4-0.7,0.7-1.2,0.7c0,0-7.8,0-7.8,0l3-2.9c0.6-0.6,0.6-1.5,0-2.1c0,0-6.7,6.5-6.7,6.5h18c2.2,0,4.1-1.8,4.1-4.1
	c0,0,0-0.1,0-0.2C22.8,18.4,22.8,18.2,22.8,18.2z M18.7,21.1c0,0-3.9,0-3.9,0c0.2-0.4,0.3-0.9,0.3-1.3v-0.1c0-0.7-0.3-1.3-0.7-1.8
	c-0.7-0.7-1.3-1.3-2-2C11,14.4,9.6,13,8.2,11.6C7,10.4,5.8,9.2,4.6,8C4,7.4,3.2,6.8,2.9,5.9C2.9,5.7,2.8,5.5,2.8,5.2
	c0-1.5,1.2-2.6,2.6-2.6c0,0,3.9,0,3.9,0C9.1,3,9,3.5,9,4c0,0.2,0,1.1,0.9,2l10.5,10.5c0.1,0.1,0.2,0.2,0.2,0.3l0,0c0,0,0,0,0,0l0,0
	c0.1,0.1,0.1,0.2,0.2,0.3c0.2,0.4,0.3,0.8,0.3,1.3C21.3,19.9,20.1,21.1,18.7,21.1z"/>
</svg>
