<?xml version="1.0" encoding="utf-8"?>
<!-- Generator: Adobe Illustrator 27.2.0, SVG Export Plug-In . SVG Version: 6.00 Build 0)  -->
<svg version="1.1" id="Capa_1" xmlns="http://www.w3.org/2000/svg" xmlns:xlink="http://www.w3.org/1999/xlink" x="0px" y="0px"
	 viewBox="0 0 24 24" style="enable-background:new 0 0 24 24;" xml:space="preserve">
<style type="text/css">
	.st0{fill:#FFFFFF;}
</style>
<circle cx="12" cy="12" r="11.9"/>
<path d="M12,23.5C5.6,23.5,0.5,18.4,0.5,12S5.6,0.5,11.9,0.5s11.5,5.1,11.5,11.5c0,0,0,0,0,0.1C23.5,18.3,18.3,23.5,12,23.5z"/>
<path class="st0" d="M6.4,8.8L6.1,8.5c-0.2-0.3-0.4-0.7-0.4-1c0-1,0.8-1.8,1.8-1.8h2.7C10,6,9.9,6.3,9.9,6.6l0,0
	c0,0.5,0.2,1,0.6,1.4l7.2,7.2l0.2,0.2l0,0l0,0l0,0c0,0.1,0.1,0.1,0.1,0.2l0,0c0.2,0.3,0.2,0.6,0.2,0.9c0,0.3-0.1,0.6-0.2,0.9
	c-0.3,0.5-0.9,0.9-1.5,0.9h-2.6c0.1-0.3,0.2-0.6,0.2-0.9l0,0c0-0.4-0.2-0.8-0.5-1.2l0,0L6.4,8.8z M16.6,19.3c1.5,0,2.8-1.2,2.8-2.8
	v-0.1l0,0v-0.1l0,0c0-0.3-0.1-0.6-0.2-0.8l0,0l0,0l0,0l0,0c-0.1-0.2-0.2-0.3-0.3-0.5l0,0c-0.1-0.1-0.1-0.2-0.2-0.3l-7.5-7.6
	C11,7,11,6.9,11,6.7c0-0.2,0-0.3,0.1-0.5c0.1-0.2,0.2-0.3,0.3-0.4c0.1-0.1,0.3-0.1,0.5-0.1h5.3l-2.1,2c-0.2,0.2-0.3,0.4-0.3,0.7
	c0,0.3,0.1,0.5,0.3,0.7l0,0l4.7-4.5H7.4c-0.5,0-1,0.2-1.5,0.4C5,5.7,4.5,6.7,4.7,7.8c0.1,0.5,0.3,1,0.6,1.4c0.1,0.1,0.3,0.3,0.4,0.4
	l0,0l6.3,6.3l0.9,0.9c0.1,0.1,0.2,0.3,0.2,0.5c0,0.2,0,0.4-0.1,0.5c-0.1,0.1-0.2,0.3-0.4,0.3c-0.1,0.1-0.3,0.1-0.5,0.1H6.8l2-2
	C8.9,16.3,9,16.2,9,16c0.1-0.1,0.1-0.3,0.1-0.4c0-0.1,0-0.3-0.1-0.4c0-0.1-0.1-0.2-0.2-0.3l0,0l-4.6,4.4L16.6,19.3L16.6,19.3z"/>
</svg>
