<?xml version="1.0" encoding="UTF-8"?>
<svg id="Layer_2" data-name="Layer 2" xmlns="http://www.w3.org/2000/svg" viewBox="0 0 22.7 21.5">
  <g id="faviconFill">
    <path d="M22.1,17.1c0-.4-.1-.8-.3-1.3h0c0,0,0,0,0-.1h0s0,0,0,0c-.1-.2-.3-.5-.4-.7-.1-.2-.2-.3-.3-.4L10.1,3.7c-.2-.2-.3-.5-.3-.8,0-.8.6-1.4,1.4-1.4s5.5,0,7.8,0l-3,2.9c-.6.6-.6,1.5,0,2.1C15.9,6.6,22.7,0,22.7,0H4.7C2.5,0,.6,1.8.6,4.1s0,.4,0,.6c.2.8.5,1.5,1,2.1s.4.4.7.6l.5.5.7.7.8.8,1,1,1,1,1,1,1,1,.9.9.8.8.6.6.4.4.2.2,1.3,1.3c.2.2.3.5.3.9s0,.5-.2.7c-.2.4-.7.7-1.2.7,0,0-7.8,0-7.8,0l3-2.9c.6-.6.6-1.5,0-2.1C6.7,15,0,21.5,0,21.5h18c2.2,0,4.1-1.8,4.1-4.1s0-.1,0-.2c0,0,0-.2,0-.2ZM18,20s-3.9,0-3.9,0c.2-.4.3-.9.3-1.3h0c0-.7-.3-1.4-.7-1.9l-2-2c-1.4-1.4-2.8-2.8-4.2-4.2s-2.4-2.4-3.6-3.6c-.6-.6-1.4-1.2-1.6-2.1,0-.2,0-.4-.1-.7,0-1.5,1.2-2.6,2.6-2.6,0,0,3.9,0,3.9,0-.2.4-.3.9-.3,1.4,0,.2,0,1.1.9,2l10.5,10.5c0,0,.2.2.2.3h0s0,0,0,0h0c0,.1.1.2.2.3.2.4.3.8.3,1.3,0,1.4-1.2,2.6-2.6,2.6Z" style="stroke-width: 0px;"/>
  </g>

  <style>
    #faviconFill {
      fill: black;
    }

    @media (prefers-color-scheme: dark) {
      #faviconFill {
        fill: white;
      }
    }
  </style>
</svg>