<svg id="Capa_1" data-name="Capa 1" xmlns="http://www.w3.org/2000/svg" viewBox="0 0 120 120"><defs><style>.cls-1{fill:#e44d26;}.cls-2{fill:#f16529;}.cls-3{fill:#ebebeb;}.cls-4{fill:#fff;}</style></defs><path d="M30.91,9.54h4.53V14h4.18V9.54h4.53v13.6H39.62V18.61H35.48v4.53H30.91m19.23-9.07h-4V9.54H58.7v4.53h-4v9.07H50.14M60.69,9.54h4.75l2.92,4.79,2.92-4.79H76v13.6H71.49V16.4l-3.17,4.89L65.14,16.4v6.74H60.69M78.27,9.54h4.54v9.1h6.42v4.5h-11"/><path class="cls-1" d="M30.75,102.38l-6.51-73H95.76l-6.51,73-29.31,8.12"/><path class="cls-2" d="M60,104.25V35.36H89.23L83.65,97.65"/><path class="cls-3" d="M37.53,44.29H60v9H47.35l.82,9.16H60v8.93H40m.4,4.5h9L50,83l10,2.68V95L41.63,89.88"/><path class="cls-4" d="M82.39,44.29H60v9h21.6m-.8,9.16H60v8.95H71L70,83,60,85.66V95l18.33-5.09"/></svg>