<?xml version="1.0" encoding="utf-8"?>
<!-- Generator: Adobe Illustrator 27.3.1, SVG Export Plug-In . SVG Version: 6.00 Build 0)  -->
<svg version="1.1" id="Layer_1" xmlns="http://www.w3.org/2000/svg" xmlns:xlink="http://www.w3.org/1999/xlink" x="0px" y="0px"
	 viewBox="0 0 2110.2 2069.7" style="enable-background:new 0 0 2110.2 2069.7;" xml:space="preserve">
<style type="text/css">
	.st0{fill:#93D500;}
	.st1{fill:#4D5A31;}
	.st2{fill:#6BA43A;}
	.st3{fill:#424143;}
</style>
<g>
	<path class="st0" d="M675.4,1155.7h-425c0.1,2.1,0.1,4.2,0.2,6.2c0.2,4,0.5,8,0.7,12c0.1,1.7,0.2,3.4,0.3,5.1
		c0.3,4.6,0.7,9.2,1.2,13.8c0.1,1,0.2,2.1,0.3,3.1c0.5,5.1,1,10.3,1.6,15.3c0,0.5,0.1,1,0.2,1.5c0.7,5.5,1.4,11,2.2,16.4
		c0,0.1,0,0.2,0,0.2c4.9,34,12.2,67.5,22,100.4c0.1,0.1,0.1,0.3,0.1,0.4c1.5,5.2,3.1,10.4,4.8,15.5c0.1,0.3,0.2,0.6,0.3,0.9
		c0.1,0.3,0.2,0.6,0.3,0.9c1.5,4.6,3.1,9.3,4.7,13.9c0.4,1.2,0.8,2.3,1.2,3.5c1.4,4,2.9,8,4.4,12c0.7,1.8,1.4,3.6,2,5.4
		c1.3,3.3,2.6,6.6,3.9,9.9c1,2.5,2,5,3.1,7.5c1.1,2.6,2.1,5.2,3.2,7.8c1.3,3.2,2.8,6.3,4.2,9.5c0.8,1.9,1.7,3.7,2.5,5.6
		c1.7,3.8,3.5,7.6,5.3,11.3c0.6,1.2,1.2,2.4,1.7,3.6c2.1,4.3,4.2,8.6,6.4,12.9c0.4,0.6,0.7,1.3,1,2c2.4,4.7,4.9,9.4,7.4,14.1
		c0.1,0.2,0.2,0.4,0.3,0.6c0.5,1,1.1,1.9,1.7,2.9l363-218.7l1.3-0.8C687.6,1220.4,678.7,1188.3,675.4,1155.7L675.4,1155.7z"/>
	<path class="st1" d="M779.9,1350.8l-1,1l-299.4,299.4c1.5,1.4,3.1,2.9,4.6,4.3c2.8,2.6,5.6,5,8.5,7.5c1.5,1.3,2.9,2.6,4.4,3.9
		c3.4,2.9,6.8,5.8,10.2,8.6c0.9,0.8,1.8,1.5,2.8,2.3c4.4,3.6,8.7,7.1,13.2,10.6c4.2,3.4,8.5,6.6,12.9,9.9c0.2,0.1,0.3,0.2,0.5,0.3
		c18.1,13.5,36.8,26.1,56,37.9c0.6,0.4,1.3,0.8,2,1.2c3.7,2.2,7.3,4.3,11,6.5l6.8,3.9c2.1,1.2,4.3,2.4,6.4,3.6
		c3.9,2.1,7.8,4.2,11.7,6.3c0.5,0.3,1.1,0.6,1.6,0.9c10.9,5.7,21.9,11,33.1,16.1l10.6-25.8l150.6-365.6l0.5-1.3
		C810.4,1373.4,794.7,1362.9,779.9,1350.8L779.9,1350.8z"/>
	<path class="st2" d="M748.7,1321c-3.2-3.6-6.3-7.3-9.3-11c-2.7-3.3-5.3-6.6-7.8-10c-2.9-3.9-5.7-7.8-8.3-11.8
		c-2.7-4-5.3-8-7.8-12.1L352,1495c5.6,9.3,11.4,18.3,17.3,27.2c0.2,0.3,0.4,0.6,0.6,0.9c0.1,0.1,0.1,0.2,0.2,0.3
		c0.2,0.3,0.4,0.6,0.6,0.9c0,0,0.1,0.1,0.1,0.1c0.5,0.7,1,1.4,1.4,2.1c0,0,0.1,0.1,0.1,0.1c0.1,0.1,0,0,0,0.1
		c6.3,9.3,12.8,18.5,19.5,27.5c0.1,0.2,0.3,0.4,0.4,0.6c0.2,0.2,0.3,0.4,0.4,0.6c2.9,3.8,5.8,7.7,8.8,11.5c0.4,0.5,0.8,1,1.2,1.5
		c3.1,3.9,6.2,7.8,9.4,11.7c0.8,0.9,1.5,1.8,2.3,2.8c2.9,3.4,5.7,6.8,8.7,10.2c1.3,1.5,2.6,2.9,3.8,4.3c2.5,2.8,5,5.7,7.5,8.5
		c1.4,1.5,2.8,3.1,4.3,4.6c0.6,0.7,1.3,1.4,2,2.1c1.9,2,3.7,4,5.6,6c0.8,0.8,1.6,1.6,2.3,2.4c3.3,3.4,6.7,6.9,10,10.3l299.9-299.8
		C755.1,1328.1,751.9,1324.5,748.7,1321L748.7,1321z"/>
	<path class="st1" d="M1146.1,1350.6c-3.3,2.7-6.6,5.3-10,7.8l0.7,1.3l218.6,362.8c10.1-6.6,20.1-13.4,29.9-20.6
		c21.2-15.6,41.6-32.5,61.4-50.7l-299.4-299.4L1146.1,1350.6z"/>
	<path class="st0" d="M1323.7,1725.5l-7.4-12.3l-204.1-338.7c-4.1,2.5-8.4,4.7-12.6,7c-4.3,2.3-8.5,4.4-12.9,6.5
		c-39.2,18.6-81.6,28.1-124.1,28.1c-27.8,0-55.7-4-82.6-12.1c-4.6-1.4-9.1-3.2-13.6-4.8c-4.5-1.6-9.1-3-13.6-4.8l-150.5,365.4
		l-5.9,14.3l-5,12.3l0,0.1c0.4,0.2,0.8,0.3,1.2,0.5c0.4,0.2,0.8,0.3,1.2,0.5h0.1c0.1,0.1,0.2,0.1,0.3,0.1c3.5,1.5,7.1,2.7,10.7,4.1
		c4.5,1.7,8.9,3.5,13.4,5.2c2.3,0.8,4.6,1.8,6.8,2.6h0c47.2,16.6,95.9,28.3,145.5,34.8c2,0.2,3.9,0.5,5.8,0.8c2,0.2,4.1,0.4,6.1,0.7
		c3.8,0.4,7.6,0.9,11.5,1.2l2.8,0.2c4.7,0.5,9.4,0.9,14.1,1.2c1.6,0.1,3.2,0.2,4.8,0.3c4.1,0.3,8.2,0.5,12.3,0.7
		c2.5,0.2,5,0.2,7.6,0.3c3.3,0.1,6.5,0.2,9.8,0.3c4.7,0.1,9.5,0.1,14.2,0.2c1.1,0,2.2,0,3.4,0.1c39.6,0,79.2-3.3,118.4-9.9
		c0.6-0.1,1.3-0.2,2-0.3c4.1-0.7,8.3-1.5,12.4-2.3c2.4-0.5,4.8-0.9,7.1-1.4c2.4-0.5,4.9-1,7.3-1.5c4-0.8,8.1-1.7,12.1-2.7
		c0.7-0.2,1.5-0.3,2.2-0.5c59.6-13.9,117.1-35.3,171.1-63.8v0c3.5-1.9,7-4,10.5-5.9c4.2-2.3,8.4-4.7,12.5-7.1
		c2.9-1.6,5.8-3.2,8.7-4.9c0,0,0.1-0.1,0.1-0.1h0c0.1,0,0.1-0.1,0.1-0.1l0.1-0.1l-0.5-0.9l0.5,0.9c0,0,0.1,0,0.1,0
		c0.1,0,0.1-0.1,0.1-0.1c0.2-0.1,0.3-0.2,0.5-0.3c0.9-0.6,1.9-1.1,2.8-1.7L1323.7,1725.5z M780,903.2c3.3-2.7,6.7-5.3,10-7.8
		l-0.7-1.2L570.7,531.3c-10.1,6.6-20.2,13.5-30,20.6c-21.1,15.6-41.6,32.5-61.3,50.6L778.8,902L780,903.2z"/>
	<path class="st1" d="M458.7,622.6c-3.4,3.4-6.6,6.9-10,10.4c-3.3,3.5-6.7,6.9-9.9,10.4c-21.9,23.6-42.1,48.7-60.6,75.1
		c-0.9,1.2-1.7,2.5-2.6,3.7c-2,3-4.1,6-6.1,9c-2.1,3.1-4.2,6.3-6.2,9.4c-0.8,1.2-1.5,2.3-2.2,3.5c-68.9,108-105.8,230.5-110.7,354.1
		c-0.2,4.8-0.3,9.6-0.4,14.4c-0.1,4.8-0.2,9.6-0.2,14.4h424.1c0-4.8,0.4-9.6,0.7-14.4c0.2-4.8,0.3-9.6,0.8-14.4
		c5.5-55.2,26.8-109.1,64-154.4c3-3.7,6.4-7.1,9.7-10.7c3.2-3.6,6.2-7.2,9.6-10.7L458.7,622.6z M1333.6,517.3
		c-0.6-0.3-1.2-0.7-1.7-1c-3.7-2.3-7.5-4.5-11.3-6.7c-2.2-1.3-4.4-2.5-6.6-3.7c-2.2-1.2-4.4-2.5-6.6-3.7c-3.8-2.1-7.7-4.2-11.5-6.2
		c-0.6-0.3-1.2-0.6-1.8-0.9c-24.9-13-50.4-24.4-76.5-34.4c-0.7-0.3-1.3-0.5-2-0.8c-5.7-2.1-11.4-4.2-17.1-6.2
		c-46.3-16.2-94.2-27.5-142.9-33.9l-6-0.8c-2-0.2-4-0.4-6-0.6c-3.8-0.5-7.7-0.9-11.5-1.3c-1-0.1-2.1-0.2-3.2-0.3
		c-4.5-0.4-9.1-0.8-13.7-1.2l-5.3-0.3c-3.9-0.2-7.9-0.5-11.8-0.7c-2.1-0.1-4.2-0.2-6.3-0.2v425c21.8,2.3,43.4,6.9,64.4,14
		l312.8-312.8C1357.4,532.5,1345.7,524.6,1333.6,517.3L1333.6,517.3z"/>
	<path class="st2" d="M948.7,413.9c-4.8,0.1-9.6,0.1-14.4,0.3c-30,1.2-59.9,4.3-89.6,9.3c-0.6,0.1-1.3,0.2-2,0.3
		c-4.2,0.7-8.3,1.5-12.4,2.3c-2.3,0.5-4.7,0.9-7.1,1.3c-2.4,0.5-4.9,1-7.3,1.5c-4,0.8-8.1,1.7-12.1,2.7c-0.8,0.1-1.5,0.3-2.2,0.5
		c-59.5,13.9-117,35.3-171.1,63.8c-3.5,1.9-7,4-10.5,5.9c-4.2,2.3-8.4,4.7-12.5,7.1c-3.1,1.8-6.2,3.4-9.3,5.3c0,0-0.1,0.1-0.1,0.1
		c-0.2,0.1-0.4,0.3-0.6,0.4c-0.8,0.5-1.6,0.9-2.4,1.4l0,0.1l7.4,12.3l211.5,351c4.1-2.5,8.4-4.8,12.6-7c4.2-2.3,8.5-4.4,12.9-6.5
		c29.9-14.3,62-23.3,94.9-26.6c4.8-0.5,9.6-0.9,14.4-1.1c4.8-0.2,9.6-0.5,14.4-0.5v-424C958.3,413.6,953.5,413.9,948.7,413.9
		L948.7,413.9z"/>
	<path class="st1" d="M1675.6,1091.9c-0.2-3.8-0.4-7.6-0.7-11.4c-0.1-1.9-0.2-3.8-0.4-5.7c-0.3-4.5-0.7-9-1.1-13.5
		c-0.1-1.2-0.2-2.3-0.3-3.5c-0.5-5-1-10-1.6-15c-0.1-0.4-0.1-0.8-0.1-1.2l-0.1-0.6c-0.6-5.4-1.4-10.8-2.1-16.2l-0.1-0.5
		c-4.9-33.9-12.2-67.4-21.9-100.2c-0.1-0.2-0.1-0.4-0.2-0.6c-1.5-5.1-3.1-10.2-4.7-15.3c-0.2-0.7-0.5-1.3-0.7-2
		c-1.5-4.6-3-9.2-4.6-13.7l-1.3-3.7c-1.4-3.9-2.8-7.9-4.3-11.8c-0.7-1.9-1.4-3.8-2.2-5.6c-1.2-3.3-2.5-6.5-3.8-9.7
		c-1-2.6-2.1-5.2-3.1-7.7c-1-2.6-2.1-5-3.2-7.6c-1.4-3.2-2.8-6.4-4.2-9.6c-0.8-1.8-1.6-3.6-2.4-5.5c-1.7-3.8-3.5-7.7-5.3-11.5
		c-0.6-1.1-1.1-2.3-1.7-3.5c-2.1-4.3-4.2-8.7-6.4-13c-0.3-0.6-0.6-1.2-0.9-1.8c-2.4-4.8-5-9.5-7.5-14.2c-0.1-0.2-0.2-0.3-0.3-0.5
		c-12.3-22.7-25.9-44.6-40.6-65.8l-312.9,312.9c7.1,21,11.7,42.6,14,64.4h425.1C1675.7,1096.1,1675.7,1093.9,1675.6,1091.9
		L1675.6,1091.9z"/>
	<path class="st2" d="M1252.4,1126.9c0,4.8-0.5,9.6-0.7,14.4c-0.2,4.8-0.3,9.6-0.8,14.4c-5.5,55.2-26.8,109.2-63.9,154.5
		c-3,3.7-6.4,7.1-9.7,10.7c-3.2,3.5-6.2,7.2-9.6,10.7l299.9,299.8c3.4-3.4,6.6-6.9,9.9-10.4c3.3-3.5,6.7-6.9,9.9-10.4
		c22.2-24,42.5-49.2,60.7-75.3c0.8-1,1.4-2.1,2.1-3.1c2.2-3.2,4.4-6.4,6.6-9.7c1.9-2.9,3.8-5.8,5.7-8.7c0.9-1.4,1.9-2.8,2.7-4.2
		c68.8-108,105.6-230.4,110.5-353.8c0.2-4.8,0.3-9.6,0.4-14.4c0.1-4.8,0.2-9.6,0.2-14.4H1252.4z"/>
	<path class="st3" d="M1802.4,287.7c-77.6-77.6-203.3-77.6-280.9,0c-61.9,61.9-74.3,154.4-37.4,228.6l-432.7,432.7
		c-74.3-36.8-166.8-24.5-228.7,37.4c-77.6,77.6-77.5,203.3,0,280.9c77.6,77.6,203.4,77.5,281,0c61.9-61.9,74.2-154.4,37.4-228.7
		L1573.7,606c74.3,36.8,166.8,24.5,228.7-37.4C1879.9,491.1,1879.9,365.3,1802.4,287.7L1802.4,287.7z"/>
</g>
</svg>
