<?xml version="1.0" encoding="utf-8"?>
<!-- Generator: Adobe Illustrator 27.3.1, SVG Export Plug-In . SVG Version: 6.00 Build 0)  -->
<svg version="1.1" id="Layer_1" xmlns="http://www.w3.org/2000/svg" xmlns:xlink="http://www.w3.org/1999/xlink" x="0px" y="0px"
	 viewBox="0 0 319 415" style="enable-background:new 0 0 319 415;" xml:space="preserve">
<style type="text/css">
	.st0{fill-rule:evenodd;clip-rule:evenodd;fill:url(#SVGID_1_);}
	.st1{fill-rule:evenodd;clip-rule:evenodd;fill:url(#SVGID_00000114033906945346089500000011765267771268779154_);}
	.st2{fill-rule:evenodd;clip-rule:evenodd;fill:url(#SVGID_00000044139389168495988020000006220649020940935819_);}
	.st3{fill-rule:evenodd;clip-rule:evenodd;fill:url(#SVGID_00000114784780081606940320000016614673167004156309_);}
	.st4{fill-rule:evenodd;clip-rule:evenodd;fill:#EAADCC;}
	.st5{fill:none;stroke:#000000;stroke-width:6;stroke-linecap:round;stroke-linejoin:round;}
	.st6{fill-rule:evenodd;clip-rule:evenodd;}
	.st7{fill-rule:evenodd;clip-rule:evenodd;fill:#FFFFFF;}
	.st8{fill:#FFFFFF;stroke:#FFFFFF;stroke-width:3;}
	.st9{fill:none;stroke:#ECB732;stroke-width:11;stroke-linecap:round;}
	.st10{fill:none;stroke:#FFC73B;stroke-width:11;stroke-linecap:round;}
</style>
<g transform="translate(-34 -24)">
	<g transform="matrix(.99254615 .12186934 -.12186934 .99254615 33.922073 .976691)">
		
			<linearGradient id="SVGID_1_" gradientUnits="userSpaceOnUse" x1="-696.0803" y1="858.2292" x2="-696.1707" y2="857.9198" gradientTransform="matrix(64.5943 -98.5607 -148.3342 -128.3014 172359.2969 41601.0234)">
			<stop  offset="0" style="stop-color:#52CE63"/>
			<stop  offset="1" style="stop-color:#51A256"/>
		</linearGradient>
		<path class="st0" d="M175.9,205.8c20.4-24.9,10-51.2-15-81.7s-68.6-37-75.5-28.6s-2.1,62.2,22.9,92.7S155.5,230.6,175.9,205.8
			L175.9,205.8z"/>
		
			<linearGradient id="SVGID_00000021110775769386964800000004243616279881239695_" gradientUnits="userSpaceOnUse" x1="-692.913" y1="863.8463" x2="-693.0035" y2="863.5369" gradientTransform="matrix(98.6103 64.644 128.2946 -148.3396 -42199.8984 173049.5938)">
			<stop  offset="0" style="stop-color:#52CE63"/>
			<stop  offset="1" style="stop-color:#51A256"/>
		</linearGradient>
		<path style="fill-rule:evenodd;clip-rule:evenodd;fill:url(#SVGID_00000021110775769386964800000004243616279881239695_);" d="
			M196.3,206.4c20.4,24.9,42.1,12.2,67.1-18.2s30.4-83.5,23.4-92s-51.1-2.6-76.1,27.9S175.8,181.5,196.3,206.4L196.3,206.4z"/>
		
			<linearGradient id="SVGID_00000093860944055007442470000012007729939917576066_" gradientUnits="userSpaceOnUse" x1="-691.6395" y1="860.4864" x2="-691.6395" y2="860.0619" gradientTransform="matrix(102.2323 -26.3237 -12.5524 -214.39 81693.7578 166309.9375)">
			<stop  offset="0" style="stop-color:#8AE99C"/>
			<stop  offset="1" style="stop-color:#52CE63"/>
		</linearGradient>
		<path style="fill-rule:evenodd;clip-rule:evenodd;fill:url(#SVGID_00000093860944055007442470000012007729939917576066_);" d="
			M185.1,192.7c28.8,0,36.8-27.6,36.8-70.7s-27-85.3-36.8-85.3c-9.8,0-37.6,42.2-37.6,85.3S156.2,192.7,185.1,192.7z"/>
	</g>
	
		<linearGradient id="SVGID_00000013151327648791184750000011496662246978193035_" gradientUnits="userSpaceOnUse" x1="-762.809" y1="770.8895" x2="-762.858" y2="770.2938" gradientTransform="matrix(301 0 0 -333 229800 256912)">
		<stop  offset="0" style="stop-color:#FFE56C"/>
		<stop  offset="1" style="stop-color:#FFC63A"/>
	</linearGradient>
	<path style="fill-rule:evenodd;clip-rule:evenodd;fill:url(#SVGID_00000013151327648791184750000011496662246978193035_);" d="
		M186.9,403.8c60,0,108.7-17.4,108.7-96.5s-48.7-143.9-108.7-143.9S78.3,228.3,78.3,307.3S126.9,403.8,186.9,403.8z"/>
	<ellipse class="st4" cx="241.8" cy="283.9" rx="15.5" ry="7.2"/>
	
		<ellipse transform="matrix(0.1219 -0.9925 0.9925 0.1219 -165.3363 372.339)" class="st4" cx="127.8" cy="279.6" rx="7.2" ry="15.5"/>
	<g transform="matrix(-.99939083 .0348995 .0348995 .99939083 269.284825 271.027667)">
		<path class="st5" d="M72.7,7.8c4.8,3.6,10.2,5,16.3,4.1c6.1-0.9,10.5-3.6,13.3-8.1"/>
		<path class="st6" d="M131.5-31.8c-4.3,0-8.2,1.7-11,4.5c-2.8,2.8-4.5,6.7-4.5,11c0,4.3,1.7,8.2,4.5,11c2.8,2.8,6.7,4.5,11,4.5
			c4.3,0,8.2-1.7,11-4.5c2.8-2.8,4.5-6.7,4.5-11c0-4.3-1.7-8.2-4.5-11C139.7-30.1,135.8-31.8,131.5-31.8z"/>
		<path class="st7" d="M131.1-18.8c0-2.8,2.3-5.1,5.1-5.1c2.8,0,5.1,2.3,5.1,5.1s-2.3,5.1-5.1,5.1C133.4-13.8,131.1-16,131.1-18.8z"
			/>
		<path class="st6" d="M37.6-24.6c-4.3,0-8.2,1.7-11,4.5c-2.8,2.8-4.5,6.7-4.5,11c0,4.3,1.7,8.2,4.5,11c2.8,2.8,6.7,4.5,11,4.5
			c4.3,0,8.2-1.7,11-4.5c2.8-2.8,4.5-6.7,4.5-11c0-4.3-1.7-8.2-4.5-11C45.8-22.9,41.9-24.6,37.6-24.6z"/>
		<g>
			<path class="st8" d="M118.1-16.3c0,7.4,6,13.4,13.4,13.4c7.4,0,13.4-6,13.4-13.4c0-7.4-6-13.4-13.4-13.4
				C124.1-29.7,118.1-23.7,118.1-16.3z M113.8-16.3c0-9.8,7.9-17.7,17.7-17.7c9.8,0,17.7,7.9,17.7,17.7c0,9.8-7.9,17.7-17.7,17.7
				C121.7,1.4,113.8-6.5,113.8-16.3z"/>
			<path class="st8" d="M24.3-9.1c0,7.4,6,13.4,13.4,13.4C45,4.3,51-1.7,51-9.1c0-7.4-6-13.4-13.4-13.4
				C30.3-22.4,24.3-16.5,24.3-9.1z M20-9.1c0-9.8,7.9-17.7,17.7-17.7c9.8,0,17.7,7.9,17.7,17.7c0,9.8-7.9,17.7-17.7,17.7
				C27.9,8.6,20,0.7,20-9.1z"/>
			<path class="st7" d="M37.3-11.6c0-2.8,2.3-5.1,5.1-5.1c2.8,0,5.1,2.3,5.1,5.1c0,2.8-2.3,5.1-5.1,5.1C39.5-6.6,37.3-8.8,37.3-11.6
				z"/>
		</g>
	</g>
	<g>
		<g>
			<path class="st9" d="M104.7,314.6l53.4,55.6"/>
			<path class="st9" d="M150.9,321.1l-33.9,36.1"/>
		</g>
		<g transform="matrix(-1 0 0 1 298 377)">
			<path class="st9" d="M29.5-62.4L82.9-6.8"/>
			<path class="st9" d="M75.7-55.9L41.8-19.8"/>
		</g>
		<g transform="matrix(0 1 -1 0 215 207)">
			<path class="st10" d="M-15.1,6.4l35.4,35.4"/>
			<path class="st10" d="M20.3,13.6L-15.1,49"/>
		</g>
	</g>
</g>
</svg>
