<?xml version="1.0" encoding="utf-8"?>
<!-- Generator: Adobe Illustrator 28.1.0, SVG Export Plug-In . SVG Version: 6.00 Build 0)  -->
<svg version="1.1" id="Layer_1" xmlns="http://www.w3.org/2000/svg" xmlns:xlink="http://www.w3.org/1999/xlink" x="0px" y="0px"
	 viewBox="0 0 49.4 42.3" style="enable-background:new 0 0 49.4 42.3;" xml:space="preserve">
<style type="text/css">
	.st0{clip-path:url(#SVGID_00000060748835254816663750000010494811933309505666_);}
	.st1{fill:#A32422;}
	.st2{fill:#DC382C;}
	.st3{fill:#FFFFFF;}
	.st4{fill:#741113;}
	.st5{fill:#AC2724;}
</style>
<g id="Layer_2_00000048489470229587101570000012527120226573305251_">
	<g id="Layer_1-2">
		<g>
			<defs>
				<rect id="SVGID_1_" x="0.9" y="0.7" width="47.7" height="40.8"/>
			</defs>
			<clipPath id="SVGID_00000180358123080502390950000010858228337978440867_">
				<use xlink:href="#SVGID_1_"  style="overflow:visible;"/>
			</clipPath>
			<g style="clip-path:url(#SVGID_00000180358123080502390950000010858228337978440867_);">
				<path class="st1" d="M46.6,32.2c-2.5,1.3-15.7,6.7-18.6,8.2c-2.8,1.5-4.4,1.4-6.6,0.4s-16.2-6.7-18.7-8
					c-1.3-0.6-1.9-1.1-1.9-1.6v-4.8c0,0,18.3-4,21.2-5c2.9-1.1,4-1.1,6.5-0.2s17.5,3.6,20,4.5v4.8C48.5,31,47.9,31.5,46.6,32.2
					L46.6,32.2z"/>
				<path class="st2" d="M46.6,27.4c-2.5,1.3-15.7,6.7-18.6,8.2c-2.8,1.5-4.4,1.4-6.6,0.4C19.3,35,5.3,29.3,2.8,28.1s-2.6-2-0.1-3
					s16.4-6.4,19.4-7.5c2.9-1.1,4-1.1,6.5-0.2c2.5,0.9,15.6,6.1,18.1,7S49.2,26.1,46.6,27.4L46.6,27.4z"/>
				<path class="st1" d="M46.6,24.4c-2.5,1.3-15.7,6.7-18.6,8.2C25.3,34,23.7,34,21.5,33S5.3,26.2,2.8,25c-1.3-0.6-1.9-1.1-1.9-1.6
					v-4.8c0,0,18.3-4,21.2-5s4-1.1,6.5-0.2s17.5,3.6,20,4.5v4.8C48.5,23.2,47.9,23.7,46.6,24.4z"/>
				<path class="st2" d="M46.6,19.6c-2.5,1.3-15.7,6.7-18.6,8.2c-2.8,1.5-4.4,1.5-6.6,0.4c-2.2-1.1-16.2-6.7-18.7-7.9
					c-2.5-1.2-2.6-2-0.1-3c2.5-1,16.4-6.4,19.4-7.5s4-1.1,6.5-0.2c2.5,0.9,15.6,6.2,18.1,7C49.1,17.5,49.2,18.2,46.6,19.6L46.6,19.6
					z"/>
				<path class="st1" d="M46.6,16.2c-2.5,1.3-15.7,6.7-18.6,8.2c-2.8,1.5-4.3,1.4-6.6,0.4c-2.2-1.1-16.2-6.7-18.7-7.9
					c-1.3-0.6-1.9-1.1-1.9-1.6v-4.8c0,0,18.3-4,21.2-5s4-1.1,6.5-0.2s17.5,3.6,20,4.5v4.8C48.5,15.1,47.9,15.5,46.6,16.2z"/>
				<path class="st2" d="M46.6,11.4c-2.5,1.3-15.7,6.8-18.6,8.2s-4.4,1.4-6.6,0.4c-2.2-1.1-16.2-6.7-18.7-7.9s-2.6-2-0.1-3
					s16.4-6.4,19.4-7.5s4-1.1,6.5-0.2s15.6,6.1,18.1,7S49.2,10.1,46.6,11.4L46.6,11.4z"/>
			</g>
		</g>
		<polygon class="st3" points="25.4,4.6 28.6,3.5 27.7,5.6 30.9,6.8 26.8,7.2 25.9,9.4 24.4,6.9 19.6,6.5 23.2,5.2 22.1,3.3 
			25.4,4.6 25.4,4.6 		"/>
		<polygon class="st3" points="25.6,17.6 17.9,14.4 29,12.7 25.6,17.6 25.6,17.6 		"/>
		<path class="st3" d="M14.9,8c3.3,0,5.9,1,5.9,2.3s-2.7,2.3-5.9,2.3S9,11.5,9,10.3S11.7,8,14.9,8z"/>
		<polygon class="st4" points="35.8,7.4 42.3,10 35.8,12.5 35.8,7.4 35.8,7.4 		"/>
		<polygon class="st5" points="35.8,7.4 35.8,12.5 35.1,12.8 28.6,10.2 35.8,7.4 35.8,7.4 		"/>
	</g>
</g>
</svg>
